<svg width="553" height="553" viewBox="0 0 553 553" fill="none" xmlns="http://www.w3.org/2000/svg">
<path d="M339.297 418.452C338.754 415.819 337.584 413.335 335.87 411.191C334.156 409.048 331.946 407.3 329.408 406.08C326.871 404.859 324.071 404.2 321.222 404.148C318.372 404.098 315.546 404.659 312.962 405.788C292.281 413.519 301.186 443.915 324.138 439.886C326.638 439.433 329.017 438.518 331.137 437.19C333.257 435.863 335.076 434.153 336.486 432.158C337.899 430.163 338.874 427.923 339.356 425.57C339.838 423.218 339.817 420.799 339.297 418.452ZM320.819 437.484C297.44 435.747 300.381 406.951 320.165 406.648C341.73 406.313 342.965 436.058 320.819 437.484Z" fill="#D1D1D1"/>
<path d="M310.235 422.096C310.206 424.548 311.193 426.911 312.988 428.69C314.781 430.468 317.239 431.518 319.841 431.616C321.184 431.677 322.527 431.476 323.785 431.028C325.044 430.578 326.191 429.893 327.158 429.011C328.121 428.129 328.883 427.068 329.397 425.897C329.911 424.727 330.162 423.471 330.139 422.204C330.182 409.77 310.699 410.128 310.235 422.096ZM315.704 427.717C314.258 426.749 313.228 425.326 312.796 423.707C312.363 422.088 312.559 420.376 313.347 418.881C314.136 417.383 315.464 416.201 317.096 415.545C318.726 414.888 320.553 414.8 322.247 415.297C323.657 415.693 324.909 416.476 325.841 417.548C326.775 418.62 327.347 419.928 327.482 421.308C327.599 422.643 327.309 423.984 326.65 425.172C325.99 426.359 324.985 427.346 323.753 428.016C322.521 428.687 321.111 429.017 319.689 428.964C318.264 428.909 316.889 428.478 315.715 427.717H315.704Z" fill="#D1D1D1"/>
<path fill-rule="evenodd" clip-rule="evenodd" d="M284.891 310.917C299.793 314.437 313.893 317.46 326.453 319.859C331.536 320.832 336.19 321.649 340.439 322.393C377.574 328.91 383.609 329.968 374.196 381.556C374.141 381.858 374.059 382.331 373.957 382.919C373.469 385.73 372.514 391.205 371.755 393.755C371.437 394.822 371.361 395.627 371.309 396.207C371.218 397.152 371.186 397.49 370.255 397.358C365.373 396.66 362.062 396.278 359.069 395.935C352.117 395.135 346.868 394.53 327.627 390.619C325.011 390.086 322.441 389.476 319.951 388.882C308.383 386.129 298.488 383.773 293.09 391.614C290.739 395.03 279.784 429.758 282.272 435.397C284.392 440.207 287.014 443.936 296.579 447.338C315.133 453.354 334.196 457.889 353.56 460.887C353.714 460.912 353.834 460.92 353.907 460.978C354.193 461.212 353.749 462.245 351.784 468.278C350.836 471.188 349.928 473.988 349.055 476.679C331.811 529.798 328.147 541.088 298.938 535.638C296.053 535.099 293.23 534.58 290.441 534.063C264.462 529.27 241.652 525.063 201.501 512.745C153.326 497.964 112.695 480.725 88.5523 467.973C59.0101 452.368 61.3354 435.842 68.1173 387.643C69.1444 380.344 70.274 372.313 71.4107 363.453C71.4279 363.315 71.4016 363.203 71.4498 363.145C71.6717 362.87 73.4653 363.73 88.2633 368.639C93.006 370.213 94.804 370.249 95.9488 371.082C97.839 372.456 97.9485 376.001 106.587 392.216C109.028 396.8 123.189 421.68 129.019 429.301C133.177 434.735 157.56 440.02 164.436 441.441C166.087 441.781 166.112 441.988 166.172 442.485C166.177 442.526 166.182 442.565 166.187 442.609C166.228 442.944 166.262 443.249 166.295 443.538C166.591 446.168 166.745 447.539 170.418 460.357C171.139 462.872 171.77 464.158 172.124 464.881C172.556 465.763 172.573 465.796 171.825 466.194L171.766 466.225C168.777 467.827 166.96 468.797 166.342 472.285C165.922 474.016 166.078 475.83 166.79 477.476C167.502 479.122 168.734 480.521 170.32 481.486C171.906 482.45 173.769 482.931 175.656 482.865C177.542 482.799 179.362 482.187 180.867 481.115C182.372 480.04 183.49 478.559 184.068 476.866C184.647 475.176 184.659 473.356 184.103 471.658C183.546 469.96 182.448 468.464 180.957 467.373C179.466 466.282 177.656 465.65 175.77 465.562C175.18 465.529 174.783 465.513 174.48 465.348C173.205 464.647 173.578 461.286 168.132 442.815C167.812 441.735 168.016 441.259 167.862 440.935C167.453 440.077 164.529 440.281 142.713 433.196C140.138 432.36 138.189 431.753 136.698 431.291C132.262 429.909 131.893 429.796 131.209 428.672C129.773 426.317 96.6749 371.291 99.4516 372.036C116.838 376.708 118.896 376.944 119.63 377.999C119.782 378.216 119.877 378.469 120.038 378.802C121.446 381.709 130.129 397.268 134.637 404.012C135.56 405.397 136.219 406.293 136.661 406.897C137.548 408.104 137.559 408.12 137.06 408.469C135.696 409.456 134.666 410.797 134.095 412.325C133.523 413.853 133.436 415.505 133.843 417.08C134.25 418.655 135.134 420.084 136.387 421.194C137.64 422.304 139.209 423.049 140.903 423.338C152.655 424.932 155.186 409.308 144.672 407.043C140.123 406.062 139.375 407.609 138.774 407.56C137.903 407.488 137.339 404.075 125.986 384.807C123.47 380.533 122.237 378.871 122.584 378.494C122.903 378.145 124.564 378.893 127.799 379.698C142.387 383.328 143.89 383.086 144.493 383.672C144.645 383.817 144.74 384.015 144.973 384.342C149.368 390.515 150.709 392.45 152.136 394.33C153.564 396.207 155.078 398.029 159.822 403.973C160.271 404.534 160.692 405.07 161.094 405.578C163.978 409.236 165.837 411.594 169.192 413.043C191.218 422.604 195.718 421.103 197.784 422.593C198.728 423.274 199.164 424.58 200.532 427.85C205.586 439.926 207.051 441.46 206.731 441.941C206.645 442.07 206.433 442.122 206.129 442.279C204.159 443.359 202.605 445 201.695 446.967C200.785 448.935 200.565 451.126 201.068 453.217C201.571 455.311 202.77 457.199 204.491 458.606C206.212 460.013 208.365 460.868 210.637 461.044C212.909 461.22 215.181 460.709 217.124 459.585C219.066 458.463 220.577 456.787 221.437 454.797C222.297 452.81 222.462 450.617 221.906 448.537C221.351 446.456 220.104 444.596 218.348 443.227C217.038 442.177 215.475 441.446 213.794 441.1C212.114 440.754 210.369 440.8 208.713 441.237C208.316 441.292 208.219 440.957 207.869 439.753C207.293 437.769 206.032 433.424 201.618 424.566C201.288 423.483 200.669 422.497 199.819 421.702C198.969 420.908 197.916 420.331 196.763 420.029C186.429 416.558 182.388 415.148 180.272 414.411C178.431 413.768 178.049 413.636 176.246 413.095C168.176 410.696 167.758 410.193 166.935 409.115C163.262 404.3 158.248 397.883 154.052 392.51C150.95 388.542 148.295 385.142 146.961 383.389C145.665 381.685 145.584 381.663 138.034 379.758C131.145 378.019 118.036 374.712 92.1085 367.122C92.0355 367.122 76.2924 362.477 71.9625 360.68C73.1056 351.566 73.3815 351.693 74.1027 352.02C74.1643 352.047 74.2294 352.078 74.2983 352.102C105.378 363.389 133.365 369.716 147.115 372.824C151.417 373.797 154.326 374.454 155.498 374.85C156.582 375.215 160.604 380.41 165.159 386.291C168.867 391.081 172.927 396.322 176.041 399.788C177.702 401.632 178.525 401.918 190.976 406.224C191.971 406.568 193.041 406.939 194.19 407.337C219.673 416.167 222.618 416.635 222.673 417.308C222.683 417.445 222.574 417.591 222.511 417.819C222.077 419.649 222.169 421.554 222.779 423.338C223.389 425.124 224.494 426.721 225.98 427.969C227.467 429.216 229.28 430.068 231.233 430.436C233.186 430.802 235.208 430.673 237.089 430.057C238.97 429.442 240.643 428.364 241.934 426.938C243.225 425.512 244.087 423.786 244.432 421.939C244.777 420.092 244.591 418.193 243.895 416.437C243.198 414.681 242.016 413.131 240.471 411.949C238.393 410.382 235.798 409.552 233.137 409.605C230.477 409.654 227.919 410.58 225.91 412.224C223.792 413.908 223.698 414.972 223.183 415.203C222.018 415.728 218.7 412.015 184.996 401.695C182.385 400.895 181.184 400.865 180.165 400.445C177.914 399.516 176.55 396.682 162.833 379.434C160.681 376.732 159.662 375.235 158.264 374.182C155.393 372.022 150.922 371.747 131.764 366.83C130.862 366.599 76.6983 351.165 73.9713 350.192C73.9961 349.972 74.018 349.752 74.0396 349.533C74.0922 349.002 74.145 348.469 74.2399 347.944C75.131 343.03 75.2355 341.991 75.6159 341.892C75.7266 341.862 75.8606 341.914 76.0443 341.972C77.9076 342.563 80.2606 343.335 82.8308 344.182C89.6256 346.419 97.9398 349.153 102.742 350.305C108.319 351.641 112.343 352.696 115.348 353.485C123.568 355.642 124.17 355.799 128.114 354.232C144.888 347.57 146.222 344.391 148.198 343.984C150.071 343.599 152.522 345.71 169.244 349.708C172.981 350.83 176.826 351.597 180.725 351.998C180.876 352.006 180.967 351.992 181.046 352.014C181.603 352.165 181.603 354.103 197.641 378.082C198.744 379.72 202.52 380.775 206.527 381.894C207.827 382.259 209.152 382.63 210.418 383.029C226.817 388.171 229.6 387.64 230.127 388.434C230.25 388.621 230.251 388.877 230.272 389.292C230.317 391.592 231.211 393.807 232.801 395.558C234.39 397.306 236.576 398.479 238.984 398.878C241.392 399.276 243.873 398.875 246 397.74C248.128 396.605 249.77 394.811 250.646 392.661C255.367 380.594 236.841 373.423 231.116 385.365C230.869 385.881 230.808 386.241 230.585 386.409C229.734 387.052 226.533 384.93 201.89 378.065C199.358 377.362 198.015 375.13 196.252 372.143C190.079 361.696 186.706 356.736 185.039 354.284C183.506 352.028 183.418 351.899 183.925 351.577C184.809 351.014 186.342 350.228 188.753 348.991C190.722 347.985 193.276 346.677 196.541 344.943C200.054 343.074 202.442 341.736 204.121 340.793C207.875 338.688 208.084 338.57 209.408 338.971C229.235 344.984 238.204 346.806 242.214 347.62C245.273 348.241 245.446 348.277 245.352 349.14C245.148 351.028 245.583 352.927 246.596 354.565C247.609 356.205 249.147 357.5 250.99 358.267C252.928 359.064 255.095 359.226 257.142 358.723C259.189 358.223 260.997 357.085 262.275 355.499C263.554 353.913 264.228 351.968 264.19 349.978C264.151 347.988 263.403 346.067 262.065 344.525C260.619 342.744 258.49 341.565 256.134 341.244C253.778 340.919 251.381 341.475 249.455 342.794C247.127 344.547 246.478 345.677 246.13 346.284C245.824 346.817 245.753 346.941 244.973 346.721C244.047 346.471 240.899 345.531 236.829 344.319C227.509 341.541 213.356 337.319 209.98 336.618C206.246 335.841 185.656 347.752 182.763 349.832C181.611 350.659 181.502 350.629 173.07 348.345C171.137 347.823 168.767 347.18 165.846 346.402C165.472 346.303 151.749 342.632 150.751 342.236C148.744 341.444 147.8 341.934 142.834 344.511C141.545 345.179 139.985 345.99 138.065 346.955C130.941 350.53 128.638 351.627 127.482 352.179C126.752 352.528 126.479 352.657 125.738 353.056C125.591 353.136 125.476 353.21 125.353 353.273C124.293 353.809 122.654 353.328 94.8881 345.421C79.0828 340.922 75.9538 340.565 75.7549 339.644C75.6673 339.24 76.1494 338.726 76.3654 337.699C76.797 335.654 76.6627 334.373 77.2723 333.826C78.8402 332.416 85.3289 335.86 119.019 343.671C119.326 343.742 119.558 343.797 119.792 343.811C121.02 343.885 122.328 342.772 135.095 336.272C145.706 330.869 145.76 330.891 146.451 331.152C146.491 331.166 146.532 331.182 146.579 331.199C154.911 333.634 163.381 335.626 171.951 337.168C172.831 337.347 173.571 337.523 174.217 337.674C176.637 338.245 177.724 338.501 179.817 337.481C205.324 325.034 207.762 321.42 208.874 321.753C209.114 321.824 209.292 322.077 209.627 322.468C210.778 323.85 212.364 324.853 214.158 325.334C215.951 325.815 217.861 325.749 219.613 325.147C221.365 324.545 222.87 323.438 223.912 321.984C224.955 320.527 225.482 318.799 225.418 317.045C225.354 315.289 224.702 313.599 223.555 312.214C222.408 310.829 220.826 309.823 219.034 309.336C217.242 308.847 215.332 308.908 213.578 309.504C211.824 310.1 210.315 311.202 209.268 312.656C207.424 314.97 207.718 317.144 207.917 318.623C208.04 319.532 208.127 320.178 207.653 320.423C181.982 333.777 180.046 336.028 177.991 336.129C177.601 336.148 177.206 336.088 176.643 336.014C172.998 335.53 157.037 331.57 154.025 330.822C153.77 330.759 153.608 330.721 153.554 330.707C145.38 328.703 145.009 328.885 143.031 329.849C142.905 329.913 142.773 329.976 142.631 330.045C126.698 337.646 123.473 340.936 119.912 341.299C115.426 341.755 110.406 337.569 78.783 331.504C78.3911 331.427 78.1068 331.435 77.9459 331.309C77.5281 330.973 77.9462 329.712 79.4895 323.627C85.18 299.486 93.1543 275.872 103.317 253.068C107.533 244.054 111.323 240.899 135.434 241.047C155.331 241.18 180.003 244.134 205.656 248.518C205.624 247.594 205.614 246.668 205.624 245.742C188.325 242.722 172.426 240.556 159.913 239.846C158.249 239.751 155.895 239.642 154.022 239.555C152.46 239.483 151.232 239.426 151.017 239.406C146.101 238.923 141.157 238.739 136.217 238.857C135.684 238.857 135.146 238.856 134.603 238.855C122.897 238.834 109.172 238.809 103.706 248.344C85.5771 279.949 71.9976 337.069 66.8297 375.427C66.3432 379.038 65.8694 382.49 65.4154 385.799C55.9076 455.069 55.2159 460.11 135.457 492.748C170.277 506.844 206.198 518.395 242.903 527.3C262.129 532.17 297.58 538.293 298.517 538.312C298.882 538.323 299.545 538.403 300.441 538.51C305.866 539.169 319.782 540.862 326.839 534.06C327.566 533.36 329.714 533.574 332.579 533.86C338.801 534.478 348.398 535.435 354.155 528.088C361.122 519.2 370.596 489.426 373.968 478.732C375.247 474.673 376.047 471.727 376.631 469.58C378.009 464.504 378.176 463.894 380.593 463.573C386.786 462.748 390.622 456.938 392.637 451.34C398.185 435.917 404.38 415.409 404.202 399.123C404.149 394.266 401.487 392.213 399.627 390.782C398.494 389.91 397.659 389.267 397.895 388.36C400.088 380.047 404.304 349.439 405.636 338.254C410.077 301.339 394.558 296.123 372.497 288.705C371.017 288.207 369.507 287.699 367.971 287.171C367.971 287.171 349.128 280.889 336.056 276.727C335.612 277.538 335.154 278.338 334.678 279.124C349.233 283.634 370.158 290.194 374.293 291.604C384.491 295.07 394.66 299.316 399.206 306.088C402.29 310.677 402.684 313.761 403.291 318.507C403.352 318.994 403.417 319.497 403.487 320.019C405.297 333.675 395.849 382.913 392.631 397.006H392.614C392.316 398.309 392.252 399.029 391.84 399.364C391.201 399.887 389.723 399.496 385.256 398.949C385.25 398.949 385.332 398.589 385.484 397.919C387.107 390.815 396.73 348.694 393.644 324.422C393.408 321.124 392.474 317.905 390.891 314.956C389.309 312.008 387.113 309.388 384.433 307.253C375.639 300.366 364.211 296.724 353.399 293.284C352.091 292.866 350.789 292.454 349.504 292.036C346.006 290.904 338.879 288.837 329.671 286.278C325.376 291.61 320.278 296.21 314.582 299.97C337.02 305.887 353.983 310.337 357.011 311.065C360.436 311.889 361.25 313.893 355.052 312.931C349.221 312.024 336.573 309.026 310.771 302.309C302.949 306.764 294.167 309.716 284.891 310.917ZM206.55 257.055C186.565 253.442 166.472 250.347 146.138 249.363C109.79 247.602 112.044 252.661 131.732 261.84C158.524 274.317 194.714 286.55 231.176 296.936C228.418 294.828 225.83 292.517 223.438 290.024C219.517 285.935 216.173 281.405 213.476 276.546C196.793 271.978 178.339 266.58 174.83 264.209C174.702 264.127 174.61 264.004 174.57 263.863C174.529 263.722 174.543 263.573 174.609 263.441C174.675 263.309 174.789 263.203 174.929 263.143C175.07 263.082 175.229 263.071 175.379 263.11C175.379 263.11 190.256 267.059 211.507 272.694C210.805 271.198 210.163 269.674 209.581 268.128C208.224 264.519 207.212 260.814 206.55 257.055ZM359.13 511.728C361.966 503.794 373.884 469.316 374.395 464.54H374.412C374.474 463.979 374.129 463.933 371.11 463.523C370.614 463.454 370.044 463.377 369.393 463.287C368.567 463.166 368.205 462.998 367.986 463.103C367.758 463.21 367.688 463.608 367.42 464.661C365.101 473.689 351.904 517.34 345.084 521.891C343.644 522.858 342.001 523.529 340.266 523.856C338.529 524.183 336.739 524.161 335.014 523.79C334.138 523.598 333.837 524.255 333.224 525.593C332.663 526.816 331.843 528.608 330.079 530.842C329.507 531.565 330.476 531.606 335.101 531.807C336.366 531.859 337.901 531.925 339.755 532.021C340.217 531.98 340.666 531.947 341.104 531.911C348.252 531.353 352.228 531.043 359.13 511.728ZM401.434 407.552C401.522 406.515 401.603 405.518 401.855 404.05H401.872C402.406 401.907 402.295 399.664 401.548 397.578C400.801 395.492 399.452 393.643 397.647 392.241C397.309 391.917 397.183 392.142 397.084 392.439C396.993 392.639 396.914 392.846 396.85 393.057C395.922 397.465 395.554 398.653 395.919 398.908C396.079 399.024 396.386 398.955 396.85 398.9C399.253 398.625 399.314 400.791 396.558 401.373C392.947 402.135 384.404 401.412 369.805 399.906C347.262 397.578 331.694 394.181 320.698 391.782C300.949 387.473 295.954 386.384 291.808 400.494C291.685 400.909 291.536 401.412 291.367 401.989C289.332 408.876 284.183 426.289 284.266 431.437C283.881 437.893 288.92 441.823 295.361 444.12C323.811 454.27 370.979 461.671 378.646 460.912C387.872 459.986 390.43 450.969 392.736 442.826C392.944 442.095 393.148 441.375 393.355 440.666C400.803 415.192 401.139 411.133 401.434 407.552ZM176.948 468.198C176.007 468.003 175.031 467.997 174.088 468.187L174.103 468.19C173.201 468.291 172.329 468.561 171.539 468.984C170.749 469.404 170.056 469.97 169.5 470.647C168.945 471.323 168.537 472.098 168.303 472.925C168.068 473.749 168.01 474.612 168.132 475.459C170.792 484.171 182.544 482.134 182.228 473.939C182.158 473.035 181.882 472.153 181.419 471.356C180.957 470.559 180.319 469.866 179.548 469.322C178.776 468.775 177.89 468.393 176.948 468.198ZM142.222 421.617C152.257 421.422 150.83 408.032 142.363 408.78C140.565 408.807 138.85 409.492 137.58 410.69C136.31 411.888 135.587 413.504 135.563 415.197C135.563 416.874 136.259 418.484 137.504 419.682C138.748 420.883 140.442 421.576 142.222 421.617ZM211.361 443.205C200.754 443.112 199.694 458.705 211.714 459.035C213.869 458.95 215.908 458.095 217.416 456.644C218.923 455.193 219.786 453.255 219.828 451.227C219.857 450.172 219.658 449.119 219.243 448.138C218.829 447.157 218.207 446.264 217.415 445.514C216.624 444.763 215.68 444.172 214.639 443.777C213.599 443.378 212.484 443.186 211.361 443.205ZM227.1 414.213C225.499 415.736 224.6 417.792 224.596 419.933C224.662 422.049 225.584 424.058 227.174 425.556C228.764 427.051 230.901 427.919 233.148 427.98C234.305 428.002 235.455 427.804 236.528 427.397C237.601 426.99 238.577 426.385 239.395 425.613C240.213 424.844 240.857 423.926 241.289 422.917C241.721 421.906 241.931 420.823 241.907 419.735C241.848 417.594 240.896 415.56 239.257 414.076C237.618 412.589 235.423 411.773 233.148 411.798C230.873 411.825 228.7 412.691 227.1 414.213ZM240.73 396.481C250.383 396.932 252.386 382.463 240.92 381.421C239.87 381.41 238.827 381.591 237.852 381.96C236.876 382.328 235.987 382.872 235.236 383.565C234.484 384.254 233.884 385.079 233.471 385.986C233.057 386.895 232.838 387.874 232.825 388.861C232.813 389.85 233.008 390.831 233.398 391.752C233.789 392.67 234.367 393.505 235.102 394.211C235.836 394.92 236.71 395.484 237.676 395.874C238.642 396.264 239.68 396.47 240.73 396.481ZM254.048 343.332C252.787 343.464 251.592 343.929 250.599 344.671C249.639 345.33 248.876 346.21 248.384 347.23C247.893 348.246 247.691 349.368 247.797 350.481C247.902 351.597 248.313 352.666 248.988 353.586C249.663 354.504 250.58 355.246 251.65 355.733C252.719 356.219 253.904 356.439 255.09 356.368C256.276 356.296 257.421 355.936 258.415 355.323C259.409 354.71 260.218 353.867 260.762 352.872C261.307 351.877 261.568 350.769 261.522 349.651C261.525 348.458 261.171 347.287 260.499 346.273C259.827 345.262 258.865 344.448 257.724 343.929C256.582 343.407 255.308 343.201 254.048 343.332ZM211.883 312.884C210.64 314.036 209.911 315.591 209.846 317.232H209.852C209.901 318.884 210.635 320.45 211.896 321.596C213.157 322.745 214.845 323.383 216.599 323.374C219.679 323.866 223.148 320.448 223.084 317.232C222.98 315.627 222.258 314.11 221.052 312.969C219.847 311.829 218.241 311.142 216.535 311.035C214.791 311.07 213.127 311.73 211.883 312.884Z" fill="#D1D1D1"/>
<path d="M274.687 179.17C353.518 181.902 371.653 274.695 308.094 305.962C298.173 310.876 287.162 313.52 275.953 313.682C264.744 313.841 253.652 311.516 243.577 306.891C233.501 302.263 224.725 295.469 217.96 287.054C211.195 278.641 206.63 268.845 204.637 258.461C196.468 216.374 232.97 177.725 274.687 179.17ZM271.431 311.415C308.19 313.388 340.92 288.134 344.024 249.677C344.847 211.201 315.063 183.567 278.9 181.465C269.803 180.95 260.688 182.133 252.078 184.947C243.469 187.76 235.536 192.148 228.735 197.858C221.933 203.567 216.399 210.487 212.449 218.217C208.5 225.948 206.213 234.338 205.721 242.904C205.229 251.469 206.54 260.042 209.581 268.129C212.621 276.216 217.33 283.657 223.438 290.025C229.544 296.39 236.929 301.559 245.165 305.231C253.402 308.9 262.328 311.002 271.431 311.415Z" fill="#D1D1D1"/>
<path d="M243.799 292.957C230.902 285.506 221.613 273.603 217.918 259.79C214.223 245.978 216.416 231.353 224.026 219.042C251.294 174.927 321.471 187.162 330.689 236.549C339.647 284.577 284.841 316.741 243.799 292.957ZM219.419 257.982C221.601 266.669 226.078 274.697 232.436 281.321C238.794 287.944 246.826 292.949 255.787 295.87C307.941 312.525 351.068 256.342 318.409 214.867C284.07 171.266 206.342 200.991 219.419 257.982Z" fill="#D1D1D1"/>
<path d="M256.728 273.043C246.938 272.551 247.887 273.189 249.081 261.102C250.127 250.485 252.293 251.686 244.655 253.365C240.334 254.316 239.481 254.693 239.586 252.343C239.636 248.068 240.242 243.815 241.391 239.679C241.453 239.33 241.618 239.004 241.868 238.739C242.117 238.475 242.44 238.281 242.801 238.181C252.144 234.798 253.233 236.23 253.584 234.718C260.068 206.741 260.883 206.136 264.156 205.985C269.626 205.74 275.108 205.799 280.57 206.164C282.486 206.29 282.839 207.392 282.763 207.749C279.89 221.109 278.383 226.616 278.383 227.713C279.919 227.633 276.973 228.078 289.583 225.204C291.335 224.805 291.478 226.493 291.169 228.183C288.313 243.708 291.636 240.371 276.445 245.299C275.134 245.725 274.194 245.59 273.943 247.289C273.516 250.194 272.74 252.032 272.535 254.03C272.296 256.345 271.21 254.173 304.629 255.012C308.859 255.116 308.054 256.476 306.746 261.825C303.802 273.835 304.678 272.436 297.674 272.818C284.041 273.628 270.37 273.703 256.728 273.043ZM302.529 270.21C303.078 268.376 305.668 259.766 306.062 257.897C306.392 256.328 307.429 256.705 296.118 256.248C295.116 256.207 288.646 256.584 277.794 256.672C267.884 256.754 270.687 257.999 272.261 246.475C272.527 244.519 273.543 244.329 279.268 242.496C289.508 239.217 286.275 241.168 287.636 236.95C288.658 233.792 288.784 230.494 289.467 227.284C289.805 225.698 286.138 227.834 277.922 230.057C274.962 230.857 275.765 229.714 280.106 212.509C281.274 207.865 281.516 207.879 280.299 207.799C279.502 207.747 271.312 207.664 270.515 207.659C261.318 207.604 262.816 207.384 261.213 212.674C252.608 241.133 259.578 235.103 246.614 238.767C243.493 239.651 242.559 237.186 241.546 250.177C241.49 250.914 240.897 251.598 241.271 252.376C251.224 250.287 252.477 249.353 252.273 251.648C251.981 254.885 251.064 260.835 250.597 264.015C249.563 271.034 249.47 270.721 251.598 270.828C274.007 271.935 302.062 271.801 302.535 270.21H302.529Z" fill="#D1D1D1"/>
<path d="M172.356 66.3506C265.072 71.6987 265.959 184.714 187.685 199.917C177.088 202.111 166.099 202.002 155.553 199.599C145.007 197.196 135.183 192.561 126.825 186.048C118.468 179.534 111.798 171.313 107.323 162.008C102.848 152.704 100.685 142.562 100.999 132.353C101.223 117.919 107.477 100.473 118.809 89.4801C135.72 73.0289 148.123 67.9116 172.356 66.3506ZM172.505 199.318C181.869 199.415 191.154 197.706 199.79 194.298C208.426 190.889 216.229 185.853 222.719 179.499C229.209 173.145 234.249 165.607 237.527 157.351C240.806 149.094 242.255 140.294 241.784 131.49C241.252 118.698 236.736 106.336 228.797 95.9413C220.858 85.5468 209.847 77.579 197.134 73.0297C184.421 68.4802 170.568 67.5502 157.298 70.3548C144.028 73.1597 131.927 79.5753 122.501 88.804C113.075 98.0325 106.741 109.666 104.285 122.258C101.829 134.849 103.361 147.843 108.691 159.621C114.02 171.399 122.911 181.442 134.257 188.5C145.604 195.559 158.905 199.32 172.505 199.318Z" fill="#D1D1D1"/>
<path d="M222.023 106.527C229.411 118.897 231.457 133.469 227.735 147.221C224.013 160.973 214.81 172.848 202.035 180.384C163.632 202.832 114.99 175.772 113.831 138.588C111.912 76.6007 192.426 58.2037 222.023 106.527ZM183.182 185.174C212.686 178.21 227.62 156.042 227.74 133.256C227.915 99.4526 190.774 73.1735 156.739 83.0619C142.102 87.3162 128.671 95.1405 121.226 110.487C99.3751 155.512 144.201 194.373 183.182 185.174Z" fill="#D1D1D1"/>
<path d="M183.064 167.515C178.927 167.115 174.868 166.176 171.006 164.722C170.188 164.346 170.626 164.582 168.244 169.87C167.076 172.451 165.972 175.595 163.663 174.712C153.032 170.65 153.823 172.561 158.863 160.562C159.096 160.012 158.162 159.891 157.695 159.693C157.085 159.418 157.207 159.319 154.874 164.192C152.393 169.378 152.626 170.079 150.93 169.749C149.943 169.559 144.191 167.097 143.289 166.671C141.879 166.009 141.829 165.668 142.217 164.362C143.121 161.488 144.301 158.697 145.742 156.024C146.238 155.087 146.617 155.661 134.775 150.948C130.293 149.164 131.245 148.293 135.549 139.68C136.451 137.874 136.959 138.35 143.931 140.914C149.771 143.06 144.323 143.781 151.797 128.308C152.565 126.716 157.088 116.839 160.264 110.191C160.58 109.529 161.161 109.982 152.936 106.376C151.321 105.667 151.131 105.184 151.59 103.353C152.425 100.573 153.663 97.9142 155.269 95.452C156.013 94.1851 156.264 93.7783 163.304 96.3012C170.507 98.8846 170.045 99.7118 170.562 98.3652C174.574 87.9052 173.987 88.7874 179.943 90.9283C181.649 91.448 183.301 92.1142 184.877 92.9181C185.777 93.5859 185.566 93.116 181.423 103.532C181.161 104.197 183.391 104.857 183.537 104.137C184.154 101.978 184.997 99.8828 186.054 97.8815C187.496 94.5588 188.171 94.2812 189.508 94.4846C192.402 95.07 195.138 96.2103 197.543 97.8348C198.384 98.7197 197.896 100.33 197.394 101.649C194.492 109.281 194.419 108.424 195.499 108.828C215.523 116.32 209.92 133.738 199.642 137.492C198.658 137.852 197.572 137.858 198.182 138.496C203.169 143.621 205.161 148.115 202.255 155.032C197.558 166.231 189.07 167.009 183.064 167.515ZM196.258 160.644C203.85 153.38 202.761 142.97 196.025 138.671C194.728 137.847 195.207 136.998 195.89 136.827C197.66 136.643 199.358 136.065 200.844 135.143C202.33 134.22 203.562 132.979 204.439 131.52C207.634 126.263 208.057 119.373 203.412 115.001C200.511 112.741 197.216 110.974 193.671 109.779C192.34 109.196 192.623 108.567 193.158 107.338C197.68 96.9416 198.495 99.3683 189.578 96.1253C188.626 95.7818 188.933 95.7818 185.742 102.721C184.261 105.945 184.185 106.747 183.158 106.225C178.723 103.98 178.27 106.775 183.05 94.6825C183.485 93.5832 184.089 94.0147 176.653 91.5495C175.485 91.1647 175.949 90.5436 172.81 97.5215C171.543 100.341 171.604 101.589 169.476 100.726C155.289 94.9738 156.758 95.2871 156.27 96.4331C152.425 105.467 151.771 104.274 154.775 105.475C163.429 108.938 163.108 108.223 161.782 110.972C147.712 139.848 149.307 144.388 146.892 143.539C134.46 139.185 137.339 139.468 136.051 142.247C135.105 144.292 134.317 146.402 133.444 148.475C133.207 149.041 132.177 148.406 146.355 154.001C148.323 154.776 147.663 155.167 145.82 159.498C143.277 165.467 143.178 165.203 144.489 165.715C154.501 169.625 149.417 169.713 156.328 158.132C156.62 157.626 156.912 157.514 160.212 158.957C161.05 159.322 160.711 160.278 160.212 161.452C156.031 171.274 156.194 170.219 157.391 170.692C164.62 173.547 164.346 173.583 164.857 172.517C169.631 162.551 168.361 164.621 169.05 163.348C170.55 160.46 184.504 171.873 196.258 160.649V160.644Z" fill="#D1D1D1"/>
<path d="M187.244 146.803C187.457 150.607 182.415 154.847 177.01 153.855C171.557 152.843 166.257 151.202 161.229 148.972C159.953 148.408 159.726 147.955 160.123 146.644C160.933 143.41 162.098 140.264 163.597 137.256C165.08 134.601 165.869 131.589 167.656 132.048C170.938 132.903 174.139 134.012 177.226 135.365C183.191 137.951 186.894 140.545 187.244 146.803ZM178.155 152.489C179.326 152.393 180.474 152.127 181.559 151.701C182.406 151.476 183.181 151.059 183.816 150.485C184.451 149.912 184.926 149.201 185.2 148.414C188.167 140.029 177.297 137.039 168.558 133.886C167.492 133.501 167.294 134.183 166.78 135.214C164.904 139.015 163.257 142.912 161.848 146.888C161.723 147.24 161.79 147.325 162.108 147.438C172.529 151.39 169.971 150.994 178.155 152.489Z" fill="#D1D1D1"/>
<path d="M185.008 128.903C182.38 129.216 177.256 127.174 172.596 125.525C169.983 124.602 170.261 123.733 170.518 122.873C171.622 119.154 173.183 115.569 175.169 112.19C175.753 111.162 176.135 111.05 177.417 111.366C179.794 112.064 182.08 113.013 184.231 114.194C188.751 116.26 191.557 118.041 192.261 120.693C192.623 121.708 192.704 122.793 192.495 123.844C192.287 124.896 191.796 125.881 191.069 126.703C190.342 127.526 189.403 128.16 188.342 128.545C187.282 128.93 186.134 129.053 185.008 128.903ZM191.043 123.051C191.126 122.173 190.977 121.289 190.608 120.479C190.239 119.668 189.662 118.956 188.929 118.407C187.061 117.024 184.987 115.907 182.775 115.09C176.43 112.74 176.862 112.245 176.304 113.606C172.217 123.62 171.563 123.321 172.78 123.802C177.358 125.599 186.967 129.752 189.633 126.124C190.412 125.251 190.902 124.184 191.043 123.051Z" fill="#D1D1D1"/>
<path d="M398.909 81.0935C398.924 90.9222 396.539 100.622 391.934 109.445C387.33 118.267 380.635 125.975 372.363 131.973C364.089 137.971 354.463 142.098 344.226 144.036C333.99 145.974 323.417 145.67 313.324 143.148C303.231 140.626 293.89 135.954 286.022 129.493C278.154 123.031 271.969 114.954 267.946 105.884C263.923 96.8137 262.169 86.9946 262.82 77.1849C263.471 67.3752 266.51 57.8378 271.701 49.3096C305.622 -7.2472 398.845 14.9259 398.909 81.0935ZM330.909 19.2902C287.079 18.8202 253.578 60.4676 268.331 101.043C283.887 143.831 341.75 156.982 375.274 126.916C420.898 86.0019 388.27 19.9086 330.909 19.2902Z" fill="#D1D1D1"/>
<path d="M330.235 29.4743C341.135 29.4834 351.786 32.5279 360.851 38.2245C369.914 43.9211 376.986 52.0151 381.173 61.4871C385.36 70.9587 386.475 81.3852 384.379 91.4527C382.282 101.52 377.068 110.779 369.395 118.062C361.719 125.346 351.923 130.328 341.246 132.383C330.568 134.438 319.482 133.472 309.386 129.608C299.289 125.744 290.635 119.154 284.509 110.669C278.384 102.183 275.063 92.181 274.966 81.9224C274.809 75.0303 276.128 68.1788 278.844 61.7767C281.561 55.3746 285.619 49.5529 290.776 44.6585C295.935 39.7641 302.087 35.8973 308.866 33.2886C315.646 30.6799 322.913 29.3827 330.235 29.4743ZM294.13 44.5898C284.592 52.7052 278.521 63.8127 277.051 75.8358C275.581 87.8587 278.814 99.974 286.145 109.916C314.913 148.898 381.873 132.386 383.129 80.8671C384.113 40.5196 329.362 14.639 294.13 44.5843V44.5898Z" fill="#D1D1D1"/>
<path d="M335.67 122.204C329.109 119.266 316.846 110.527 309.141 104.577C303.851 100.49 304.604 100.746 305.147 99.7865C307.439 95.7212 310.347 91.9934 313.787 88.7219C314.663 87.8974 315.565 88.2025 317.67 89.5464C321.392 91.7942 324.969 94.2481 328.382 96.8953C337.871 103.766 330.479 102.054 347.524 85.3332C349.638 83.261 358.797 91.8192 360.479 93.4791C360.671 93.6097 360.829 93.7779 360.946 93.9722C361.06 94.1665 361.13 94.3822 361.147 94.6043C361.165 94.8261 361.13 95.049 361.045 95.2573C360.963 95.4656 360.832 95.6541 360.663 95.8097C356.627 101.081 341.282 119.324 335.67 122.204ZM358.788 95.1693C359.696 94.0948 360.187 95.0622 348.919 86.6002C348.216 86.0698 348.919 85.5009 335.53 101.859C334.117 103.585 334.852 103.326 327.063 97.783C314.052 88.513 314.8 89.5766 314.306 90.1757C313.813 90.7748 311.719 93.3885 306.893 99.715C306.149 100.691 305.725 99.9898 313.538 105.486C317.43 108.235 331.933 118.733 336.409 120.69C335.696 120.704 339.025 118.557 358.788 95.1693Z" fill="#D1D1D1"/>
<path d="M356.161 59.6716C356.486 62.5298 349.896 69.2438 347.528 71.7915C346.556 72.8386 346.611 73.0557 345.116 72.0663C326.894 60.1113 328.564 59.2044 327.54 59.699C323.931 65.1863 319.875 70.3992 315.402 75.29C313.154 77.9366 314.001 77.7937 300.926 68.969C299.618 68.0868 299.175 68.5732 306.129 59.9409C308.138 57.4455 315.799 48.3761 317.554 46.4743C324.734 38.6582 324.518 39.3425 325.913 40.0406C335.02 44.6165 353.779 56.4396 356.161 59.6716ZM354.801 60.3284C354.491 59.9162 355.093 60.3284 351.321 57.6213C343.154 51.6265 334.471 46.2811 325.361 41.6401C324.121 40.964 324.915 40.3676 318.217 48.3129C300.158 69.733 302.158 67.9384 303.175 68.6502C313.394 75.7133 313.049 75.9057 313.747 74.9712C315.055 73.2398 310.468 79.4125 322.41 64.0441C327.105 57.9979 326.789 57.418 327.893 58.1408C331.122 60.235 345.738 70.978 346.167 70.9588C346.596 70.9395 354.278 61.1639 354.801 60.3284Z" fill="#D1D1D1"/>
<path d="M308.575 83.432C306.166 87.8155 302.995 91.7909 299.199 95.1946C298.884 95.4727 298.478 95.6379 298.046 95.661C297.617 95.6841 297.191 95.5637 296.846 95.321C293.351 93.2444 290.154 90.7583 287.325 87.9227C285.964 86.7437 285.775 86.2737 293.9 75.5114C293.991 75.3196 294.128 75.1495 294.297 75.0129C294.469 74.8763 294.668 74.7771 294.884 74.7219C295.1 74.6666 295.325 74.657 295.547 74.6938C295.766 74.7307 295.973 74.8126 296.157 74.9343C300.975 76.7663 305.237 79.6844 308.575 83.432ZM295.655 76.4266C294.487 77.4545 288.049 86.1363 288.502 86.7821C288.709 87.079 295.415 92.2787 295.69 92.5013C297.813 94.1503 298.026 94.2712 298.452 93.7545C306.986 83.1407 307.164 83.9514 305.897 83.0362C301.941 80.2082 296.586 76.9103 295.655 76.4266Z" fill="#D1D1D1"/>
<path d="M375.361 75.1332C373.466 79.157 370.841 82.8411 367.609 86.0219C366.961 86.654 366.508 87.2064 365.72 86.8107C361.527 84.7651 357.758 82.0287 354.59 78.7307C354.356 78.5653 354.199 78.3199 354.155 78.047C354.108 77.7743 354.178 77.4959 354.35 77.2714C356.315 73.2732 359.077 69.6688 362.491 66.6548C363.679 65.6049 363.982 65.4895 365.372 66.3442C369.328 68.5701 372.736 71.5668 375.361 75.1332ZM373.647 75.1744C370.584 72.3608 367.331 69.737 363.907 67.3199C361.016 70.5571 358.333 73.9526 355.872 77.4885C355.328 78.1976 355.775 77.9804 357.988 79.5442C366.479 85.5465 366.207 85.7966 366.747 85.0105C369.682 80.8167 373.188 75.8835 373.647 75.1744Z" fill="#D1D1D1"/>
<path d="M329.069 70.9941C333.39 72.8726 337.309 75.4807 340.628 78.6893C341.332 79.4396 341.332 79.5825 340.728 80.407C332.663 91.3781 332.144 90.7543 330.748 89.8199C318.976 81.9405 319.171 82.5177 320.97 79.8711C322.526 77.5763 326.377 72.0825 329.069 70.9941ZM332.129 88.8195C332.573 88.2973 333.452 87.0276 334.348 85.9091C339.872 79.0164 339.896 79.7529 338.655 78.9229C328.48 72.1127 329.18 72.1814 328.485 73.0114C326.366 75.5371 323.814 78.5519 322.141 80.6406C321.434 81.5201 321.119 81.2177 325.385 84.1776C325.545 84.3013 331.408 88.377 332.129 88.8195Z" fill="#D1D1D1"/>
<path d="M440.379 130.809C519.241 129.608 542.631 221.318 480.899 255.734C471.27 261.139 460.423 264.332 449.241 265.054C438.055 265.777 426.85 264.008 416.525 259.892C406.204 255.776 397.057 249.429 389.828 241.364C382.598 233.299 377.489 223.744 374.914 213.474C364.388 171.873 398.628 131.443 440.379 130.809ZM444.581 263.017C481.401 263.149 512.663 236.304 513.588 197.746C512.242 159.314 480.934 133.175 444.709 132.886C435.594 132.823 426.555 134.457 418.114 137.695C409.673 140.933 401.994 145.71 395.524 151.752C389.051 157.794 383.912 164.981 380.403 172.9C376.893 180.818 375.083 189.312 375.074 197.892C375.066 206.472 376.858 214.969 380.353 222.894C383.848 230.819 388.972 238.015 395.434 244.068C401.892 250.121 409.562 254.912 417.997 258.164C426.429 261.417 435.466 263.067 444.581 263.02V263.017Z" fill="#D1D1D1"/>
<path d="M415.957 245.971C402.654 239.177 392.704 227.753 388.234 214.143C383.764 200.533 385.127 185.817 392.035 173.141C416.789 127.732 487.533 136.449 499.53 185.294C511.2 232.815 458.286 267.669 415.957 245.971ZM389.679 212.263C392.351 220.826 397.276 228.615 403.997 234.909C410.719 241.202 419.019 245.796 428.132 248.266C481.162 262.282 521.06 204.018 486.094 164.254C449.32 122.436 373.37 156.006 389.667 212.263H389.679Z" fill="#D1D1D1"/>
<path d="M473.053 202.961C473.172 204.396 470.518 205.047 441.339 213.232C438.244 214.1 415.748 191.336 415.126 190.377C414.264 189.044 414.542 188.896 418.221 184.897C425.277 177.202 438.539 163.268 446.927 157.087C454.559 151.467 454.445 150.216 455.71 152.709C462.72 166.574 471.602 196.668 473.053 202.961ZM444.953 184.699C446.705 184.595 445.946 185.881 448.422 175.663C454.177 151.898 453.692 154.435 453.496 153.718C451.234 154.3 418.869 185.732 417.748 188.214C418.349 188.36 433.678 185.381 444.953 184.699ZM470.848 200.403C470.635 198.987 455.581 155.21 454.983 154.759C454.559 155.309 454.813 155.284 454.629 156.045C447.175 187.219 446.696 184.474 449.972 186.244C464.302 193.991 470.48 201.656 470.848 200.403ZM445.926 186.224C443.923 185.609 417.733 189.874 417.021 190.058C417.374 190.828 423.181 195.764 428.507 200.755C439.894 211.421 439.87 211.885 440.369 211.168C440.606 210.89 445.023 188.931 445.926 186.224ZM441.984 211.607C450.478 209.159 449.847 208.664 470.965 202.928C471.972 202.654 471.958 202.838 462.869 196.594C452.238 189.291 451.68 188.973 448.343 186.947C447.082 186.183 447.619 185.452 444.197 200.469C441.464 212.454 441.642 211.135 441.978 211.607H441.984Z" fill="#D1D1D1"/>
<path d="M413.555 194.492C414.662 195.333 433.803 214.491 437.941 218.056C438.706 218.716 468.557 208.506 470.192 208.423C471.652 208.349 470.443 209.836 469.444 210.85C451.418 229.164 449.114 230.437 437.278 239.451C433.541 242.296 432.957 243.431 431.944 241.408C424.417 226.785 418.057 211.655 412.913 196.144C412.516 195.144 413.041 194.891 413.555 194.492ZM434.577 239.405C445.383 230.99 455.733 222.07 465.59 212.68C466.965 211.4 468.253 210.281 466.294 210.916C437.786 220.147 438.951 219.081 438.609 220.573C433.999 240.795 434.192 238.767 434.577 239.405ZM415.619 198.598C415.494 198.955 431.576 237.846 432.846 239.325C433.091 238.594 433.847 234.056 434.764 229.885C436.986 219.741 437.617 219.881 436.694 219.012C417.471 200.909 417.374 199.794 415.619 198.598Z" fill="#D1D1D1"/>
</svg>
