<svg width="27" height="27" viewBox="0 0 27 27" fill="none" xmlns="http://www.w3.org/2000/svg">
<path d="M20.5167 11.7033C20.1377 12.0846 19.8475 12.5448 19.6667 13.051C19.4859 13.5573 19.419 14.0972 19.4707 14.6323L19.4527 14.6143C19.5059 15.2442 19.4209 15.878 19.2038 16.4717C18.9867 17.0653 18.6427 17.6044 18.1958 18.0514C17.7488 18.4983 17.2097 18.8424 16.616 19.0594C16.0224 19.2765 15.3885 19.3615 14.7587 19.3083L14.7767 19.3263C14.0233 19.2562 13.2666 19.4201 12.6097 19.7958C11.9529 20.1715 11.4279 20.7406 11.1064 21.4256C10.7849 22.1106 10.6824 22.878 10.813 23.6234C10.9437 24.3687 11.301 25.0556 11.8363 25.5904C12.3716 26.1252 13.0588 26.4819 13.8042 26.6118C14.5497 26.7418 15.317 26.6386 16.0017 26.3165C16.6864 25.9943 17.255 25.4689 17.6301 24.8117C18.0052 24.1545 18.1685 23.3977 18.0977 22.6443L18.1167 22.6623C18.0635 22.0325 18.1484 21.3986 18.3655 20.8049C18.5826 20.2113 18.9267 19.6722 19.3736 19.2252C19.8206 18.7783 20.3597 18.4342 20.9533 18.2172C21.547 18.0001 22.1808 17.9151 22.8107 17.9683L22.7917 17.9503C23.4071 18.0056 24.0266 17.9047 24.5927 17.6569C25.1587 17.4091 25.6531 17.0224 26.0299 16.5327C26.4067 16.043 26.6539 15.466 26.7483 14.8554C26.8428 14.2447 26.7816 13.6201 26.5704 13.0393C26.3592 12.4586 26.0048 11.9406 25.5401 11.5333C25.0754 11.126 24.5154 10.8426 23.912 10.7094C23.3086 10.5762 22.6813 10.5974 22.0883 10.7711C21.4953 10.9449 20.9558 11.2655 20.5197 11.7033H20.5167Z" fill="#6161D6"/>
<path d="M13.0841 16.9683L13.0651 16.9503C13.6004 17.0042 14.141 16.9385 14.6479 16.7579C15.1547 16.5773 15.6151 16.2864 15.9957 15.9061C16.3762 15.5258 16.6676 15.0656 16.8485 14.5589C17.0295 14.0522 17.0956 13.5117 17.0421 12.9763L17.0611 12.9943C17.0079 12.3644 17.0929 11.7306 17.3099 11.1369C17.527 10.5433 17.8711 10.0042 18.318 9.55717C18.765 9.11027 19.3041 8.76617 19.8977 8.54917C20.4914 8.33203 21.1252 8.2471 21.7551 8.30027L21.7361 8.28227C22.4896 8.35307 23.2465 8.18963 23.9037 7.81437C24.561 7.43911 25.0864 6.87024 25.4084 6.18537C25.7304 5.50051 25.8333 4.73298 25.7031 3.98747C25.5729 3.24196 25.2159 2.55478 24.6807 2.01964C24.1456 1.48451 23.4584 1.12747 22.7129 0.997251C21.9674 0.867021 21.1999 0.969932 20.515 1.29195C19.8301 1.61396 19.2613 2.13941 18.886 2.79662C18.5107 3.45382 18.3473 4.21079 18.4181 4.96427L18.4001 4.94527C18.4534 5.57516 18.3686 6.2091 18.1516 6.80282C17.9346 7.39654 17.5905 7.93573 17.1436 8.38277C16.6966 8.82967 16.1574 9.17377 15.5637 9.39077C14.9699 9.60777 14.336 9.69257 13.7061 9.63927L13.7241 9.65827C13.1888 9.60437 12.6481 9.67007 12.1413 9.85067C11.6345 10.0312 11.1741 10.3222 10.7935 10.7025C10.4129 11.0828 10.1216 11.543 9.94065 12.0497C9.75975 12.5564 9.69365 13.0969 9.74715 13.6323L9.72915 13.6143C9.78215 14.2441 9.69705 14.8779 9.47995 15.4715C9.26275 16.065 8.91875 16.6041 8.47185 17.051C8.02491 17.4979 7.48587 17.8419 6.89231 18.0591C6.29875 18.2762 5.66496 18.3613 5.03515 18.3083L5.05315 18.3263C4.29967 18.2555 3.5427 18.4189 2.88549 18.7942C2.22829 19.1695 1.70284 19.7383 1.38083 20.4232C1.05881 21.1081 0.955887 21.8756 1.08612 22.6211C1.21635 23.3666 1.57339 24.0538 2.10852 24.5889C2.64366 25.1241 3.33084 25.4811 4.07635 25.6113C4.82186 25.7415 5.58939 25.6386 6.27426 25.3166C6.95912 24.9946 7.52799 24.4692 7.90325 23.812C8.27855 23.1547 8.44195 22.3978 8.37115 21.6443L8.39015 21.6623C8.33695 21.0324 8.42195 20.3986 8.63905 19.8049C8.85605 19.2113 9.20015 18.6722 9.64705 18.2252C10.094 17.7783 10.6331 17.4342 11.2267 17.2172C11.8204 17.0001 12.4542 16.9151 13.0841 16.9683Z" fill="#6161D6"/>
<path d="M6.2699 14.961C6.64892 14.5798 6.9391 14.1196 7.11974 13.6133C7.30038 13.107 7.36702 12.567 7.3149 12.032L7.33389 12.05C7.28069 11.42 7.36565 10.7859 7.58286 10.1921C7.80007 9.59827 8.1443 9.05907 8.5915 8.61207C9.0387 8.16509 9.578 7.8211 10.1719 7.60415C10.7658 7.38719 11.3999 7.30249 12.0299 7.35597L12.0109 7.33797C12.7641 7.40854 13.5208 7.24505 14.1777 6.86981C14.8346 6.49458 15.3597 5.92585 15.6816 5.2412C16.0034 4.55654 16.1062 3.78929 15.976 3.04406C15.8458 2.29883 15.4888 1.61191 14.9539 1.07697C14.419 0.54203 13.732 0.18511 12.9868 0.0548905C12.2416 -0.0753395 11.4743 0.0274805 10.7897 0.3493C10.105 0.67112 9.5363 1.19629 9.1611 1.85319C8.7858 2.51009 8.6223 3.26675 8.6929 4.01997L8.6749 4.00197C8.7281 4.63182 8.6431 5.26569 8.426 5.85933C8.2089 6.45297 7.86492 6.99208 7.41796 7.43904C6.97101 7.886 6.43189 8.23003 5.83825 8.44707C5.24461 8.66417 4.61075 8.74917 3.9809 8.69597L3.9989 8.71397C3.38347 8.65877 2.76406 8.75987 2.19808 9.00777C1.6321 9.25567 1.13785 9.64247 0.761139 10.1323C0.384429 10.622 0.137449 11.199 0.0430689 11.8096C-0.0513011 12.4203 0.0099889 13.0449 0.221259 13.6255C0.432529 14.2062 0.786959 14.7241 1.25169 15.1313C1.71642 15.5386 2.27642 15.8219 2.8798 15.9551C3.48317 16.0882 4.1104 16.0669 4.70337 15.8932C5.29633 15.7194 5.83583 15.3988 6.27189 14.961H6.2699Z" fill="#6161D6"/>
</svg>
