<svg width="170" height="41" viewBox="0 0 170 41" fill="none" xmlns="http://www.w3.org/2000/svg">
<path d="M64.3622 20.3636C64.3622 22.0291 64.0465 23.446 63.4151 24.6143C62.7887 25.7827 61.9336 26.6751 60.8498 27.2915C59.771 27.9031 58.5579 28.2088 57.2106 28.2088C55.8533 28.2088 54.6353 27.9006 53.5565 27.2841C52.4776 26.6676 51.625 25.7752 50.9986 24.6069C50.3722 23.4386 50.0589 22.0241 50.0589 20.3636C50.0589 18.6982 50.3722 17.2812 50.9986 16.1129C51.625 14.9446 52.4776 14.0547 53.5565 13.4432C54.6353 12.8267 55.8533 12.5185 57.2106 12.5185C58.5579 12.5185 59.771 12.8267 60.8498 13.4432C61.9336 14.0547 62.7887 14.9446 63.4151 16.1129C64.0465 17.2812 64.3622 18.6982 64.3622 20.3636ZM61.0884 20.3636C61.0884 19.2848 60.9268 18.375 60.6037 17.6342C60.2855 16.8935 59.8356 16.3317 59.2539 15.9489C58.6722 15.5661 57.9911 15.3746 57.2106 15.3746C56.43 15.3746 55.7489 15.5661 55.1673 15.9489C54.5856 16.3317 54.1332 16.8935 53.81 17.6342C53.4918 18.375 53.3327 19.2848 53.3327 20.3636C53.3327 21.4425 53.4918 22.3523 53.81 23.093C54.1332 23.8338 54.5856 24.3956 55.1673 24.7784C55.7489 25.1612 56.43 25.3526 57.2106 25.3526C57.9911 25.3526 58.6722 25.1612 59.2539 24.7784C59.8356 24.3956 60.2855 23.8338 60.6037 23.093C60.9268 22.3523 61.0884 21.4425 61.0884 20.3636ZM68.9541 28L65.8369 16.5455H69.051L70.8259 24.2415H70.9303L72.7797 16.5455H75.9342L77.8135 24.1967H77.9104L79.6555 16.5455H82.8621L79.7524 28H76.3891L74.4204 20.7962H74.2787L72.3099 28H68.9541ZM89.4899 28.2237C88.3116 28.2237 87.2974 27.9851 86.4473 27.5078C85.6021 27.0256 84.9508 26.3445 84.4934 25.4645C84.036 24.5795 83.8074 23.533 83.8074 22.3249C83.8074 21.1467 84.036 20.1126 84.4934 19.2227C84.9508 18.3327 85.5946 17.6392 86.4249 17.142C87.2601 16.6449 88.2395 16.3963 89.3631 16.3963C90.1188 16.3963 90.8223 16.5181 91.4735 16.7617C92.1298 17.0004 92.7015 17.3608 93.1887 17.843C93.6809 18.3253 94.0637 18.9318 94.3372 19.6626C94.6106 20.3885 94.7473 21.2386 94.7473 22.2131V23.0856H85.0751V21.1168H91.7569C91.7569 20.6594 91.6575 20.2543 91.4586 19.9013C91.2598 19.5483 90.9838 19.2724 90.6309 19.0735C90.2828 18.8697 89.8777 18.7678 89.4153 18.7678C88.9331 18.7678 88.5055 18.8796 88.1326 19.1033C87.7647 19.3221 87.4764 19.6179 87.2676 19.9908C87.0588 20.3587 86.9519 20.7688 86.9469 21.2212V23.093C86.9469 23.6598 87.0513 24.1495 87.2601 24.5621C87.4739 24.9748 87.7747 25.293 88.1625 25.5167C88.5502 25.7404 89.0101 25.8523 89.5421 25.8523C89.8951 25.8523 90.2182 25.8026 90.5115 25.7031C90.8049 25.6037 91.0559 25.4545 91.2647 25.2557C91.4735 25.0568 91.6326 24.8132 91.742 24.5249L94.6802 24.7188C94.5311 25.4247 94.2253 26.0412 93.763 26.5682C93.3056 27.0902 92.714 27.4979 91.9881 27.7912C91.2672 28.0795 90.4345 28.2237 89.4899 28.2237ZM99.9973 21.3778V28H96.8205V16.5455H99.8482V18.5664H99.9824C100.236 17.9002 100.661 17.3732 101.258 16.9854C101.854 16.5927 102.578 16.3963 103.428 16.3963C104.223 16.3963 104.917 16.5703 105.508 16.9183C106.1 17.2663 106.56 17.7635 106.888 18.4098C107.216 19.0511 107.38 19.8168 107.38 20.7067V28H104.203V21.2734C104.208 20.5724 104.029 20.0256 103.666 19.6328C103.303 19.2351 102.804 19.0362 102.167 19.0362C101.74 19.0362 101.362 19.1282 101.034 19.3121C100.711 19.4961 100.457 19.7646 100.273 20.1175C100.094 20.4656 100.002 20.8857 99.9973 21.3778ZM123.419 18.0742H120.153C120.093 17.6516 119.971 17.2763 119.787 16.9482C119.603 16.6151 119.367 16.3317 119.079 16.098C118.791 15.8643 118.457 15.6854 118.08 15.5611C117.707 15.4368 117.302 15.3746 116.864 15.3746C116.074 15.3746 115.385 15.571 114.798 15.9638C114.212 16.3516 113.757 16.9183 113.434 17.6641C113.111 18.4048 112.949 19.3047 112.949 20.3636C112.949 21.4524 113.111 22.3672 113.434 23.108C113.762 23.8487 114.219 24.408 114.806 24.7859C115.392 25.1637 116.071 25.3526 116.842 25.3526C117.274 25.3526 117.674 25.2955 118.042 25.1811C118.415 25.0668 118.746 24.9002 119.034 24.6815C119.323 24.4577 119.561 24.1868 119.75 23.8686C119.944 23.5504 120.078 23.1875 120.153 22.7798L123.419 22.7947C123.335 23.4957 123.123 24.1719 122.785 24.8232C122.452 25.4695 122.002 26.0487 121.435 26.5607C120.874 27.0678 120.203 27.4705 119.422 27.7688C118.646 28.0621 117.769 28.2088 116.79 28.2088C115.427 28.2088 114.209 27.9006 113.135 27.2841C112.066 26.6676 111.221 25.7752 110.6 24.6069C109.983 23.4386 109.675 22.0241 109.675 20.3636C109.675 18.6982 109.988 17.2812 110.615 16.1129C111.241 14.9446 112.091 14.0547 113.165 13.4432C114.239 12.8267 115.447 12.5185 116.79 12.5185C117.674 12.5185 118.495 12.6428 119.25 12.8913C120.011 13.1399 120.685 13.5028 121.271 13.9801C121.858 14.4524 122.335 15.0316 122.703 15.7177C123.076 16.4038 123.315 17.1893 123.419 18.0742ZM130.85 28.2237C129.692 28.2237 128.69 27.9776 127.845 27.4854C127.005 26.9883 126.356 26.2972 125.899 25.4123C125.441 24.5224 125.213 23.4908 125.213 22.3175C125.213 21.1342 125.441 20.1001 125.899 19.2152C126.356 18.3253 127.005 17.6342 127.845 17.142C128.69 16.6449 129.692 16.3963 130.85 16.3963C132.009 16.3963 133.008 16.6449 133.848 17.142C134.693 17.6342 135.345 18.3253 135.802 19.2152C136.259 20.1001 136.488 21.1342 136.488 22.3175C136.488 23.4908 136.259 24.5224 135.802 25.4123C135.345 26.2972 134.693 26.9883 133.848 27.4854C133.008 27.9776 132.009 28.2237 130.85 28.2237ZM130.865 25.7628C131.392 25.7628 131.832 25.6136 132.185 25.3153C132.538 25.0121 132.804 24.5994 132.983 24.0774C133.167 23.5554 133.259 22.9613 133.259 22.2951C133.259 21.6289 133.167 21.0348 132.983 20.5128C132.804 19.9908 132.538 19.5781 132.185 19.2749C131.832 18.9716 131.392 18.82 130.865 18.82C130.333 18.82 129.886 18.9716 129.523 19.2749C129.165 19.5781 128.894 19.9908 128.71 20.5128C128.531 21.0348 128.442 21.6289 128.442 22.2951C128.442 22.9613 128.531 23.5554 128.71 24.0774C128.894 24.5994 129.165 25.0121 129.523 25.3153C129.886 25.6136 130.333 25.7628 130.865 25.7628ZM138.554 28V16.5455H141.731V28H138.554ZM140.15 15.0689C139.677 15.0689 139.272 14.9123 138.934 14.5991C138.601 14.2809 138.435 13.9006 138.435 13.4581C138.435 13.0206 138.601 12.6452 138.934 12.332C139.272 12.0138 139.677 11.8548 140.15 11.8548C140.622 11.8548 141.025 12.0138 141.358 12.332C141.696 12.6452 141.865 13.0206 141.865 13.4581C141.865 13.9006 141.696 14.2809 141.358 14.5991C141.025 14.9123 140.622 15.0689 140.15 15.0689ZM147.452 21.3778V28H144.276V16.5455H147.303V18.5664H147.438C147.691 17.9002 148.116 17.3732 148.713 16.9854C149.309 16.5927 150.033 16.3963 150.883 16.3963C151.678 16.3963 152.372 16.5703 152.963 16.9183C153.555 17.2663 154.015 17.7635 154.343 18.4098C154.671 19.0511 154.835 19.8168 154.835 20.7067V28H151.658V21.2734C151.663 20.5724 151.484 20.0256 151.121 19.6328C150.759 19.2351 150.259 19.0362 149.623 19.0362C149.195 19.0362 148.817 19.1282 148.489 19.3121C148.166 19.4961 147.912 19.7646 147.728 20.1175C147.549 20.4656 147.457 20.8857 147.452 21.3778Z" fill="white" style="fill:white;fill-opacity:1;"/>
<g clip-path="url(#clip0_1951_4)">
<path d="M15.3431 10C13.3124 10 11.3649 10.8067 9.92893 12.2426L5.24264 16.9289C3.8067 18.3649 3 20.3124 3 22.3431C3 26.5719 6.42809 30 10.6569 30C12.6876 30 14.6351 29.1933 16.0711 27.7573L19.3126 24.5158C19.3127 24.5159 19.3126 24.5157 19.3126 24.5158L28.7573 15.0711C29.4431 14.3853 30.3733 14 31.3431 14C32.9669 14 34.3435 15.0583 34.8207 16.5227L37.8015 13.542C36.4417 11.4122 34.0573 10 31.3431 10C29.3124 10 27.3649 10.8067 25.9289 12.2426L13.2427 24.9289C12.5569 25.6147 11.6267 26 10.6569 26C8.63723 26 7 24.3628 7 22.3431C7 21.3733 7.38527 20.4431 8.07107 19.7573L12.7573 15.0711C13.4431 14.3853 14.3733 14 15.3431 14C16.9669 14 18.3435 15.0583 18.8207 16.5228L21.8015 13.542C20.4417 11.4123 18.0574 10 15.3431 10Z" fill="#6161D6" style="fill:#6161D6;fill:color(display-p3 0.3794 0.3794 0.8400);fill-opacity:1;"/>
<path d="M13.0439 24.9289C12.3581 25.6147 11.4279 26 10.4581 26C8.83453 26 7.45807 24.942 6.98067 23.4778L4 26.4585C5.35987 28.5879 7.74406 30 10.4581 30C12.4888 30 14.4363 29.1933 15.8723 27.7573L28.5585 15.0711C29.2443 14.3853 30.1745 14 31.1443 14C33.164 14 34.8012 15.6372 34.8012 17.6569C34.8012 18.6267 34.4159 19.5569 33.7301 20.2427L29.0439 24.9289C28.3581 25.6147 27.4279 26 26.4581 26C24.8344 26 23.4579 24.9418 22.9805 23.4775L19.9999 26.4582C21.3597 28.5879 23.7439 30 26.4581 30C28.4888 30 30.4363 29.1933 31.8723 27.7573L36.5585 23.0711C37.9945 21.6351 38.8012 19.6876 38.8012 17.6569C38.8012 13.4281 35.3731 10 31.1443 10C29.1136 10 27.1661 10.8067 25.7301 12.2426L13.0439 24.9289Z" fill="#6161D6" style="fill:#6161D6;fill:color(display-p3 0.3794 0.3794 0.8400);fill-opacity:1;"/>
</g>
<defs>
<clipPath id="clip0_1951_4">
<rect width="36" height="20" fill="white" style="fill:white;fill-opacity:1;" transform="translate(3 10)"/>
</clipPath>
</defs>
</svg>
