<svg width="170" height="41" viewBox="0 0 170 41" fill="none" xmlns="http://www.w3.org/2000/svg">
<path d="M147.452 21.378V28.0002H144.275V16.5456H147.303V18.5666H147.437C147.691 17.9004 148.116 17.3734 148.713 16.9856C149.309 16.5929 150.032 16.3965 150.883 16.3965C151.678 16.3965 152.372 16.5705 152.963 16.9185C153.555 17.2665 154.015 17.7637 154.343 18.41C154.671 19.0513 154.835 19.8169 154.835 20.7069V28.0002H151.658V21.2736C151.663 20.5726 151.484 20.0257 151.121 19.633C150.758 19.2353 150.259 19.0364 149.622 19.0364C149.195 19.0364 148.817 19.1284 148.489 19.3123C148.166 19.4963 147.912 19.7647 147.728 20.1177C147.549 20.4657 147.457 20.8858 147.452 21.378Z" fill="white" style="fill:white;fill-opacity:1;"/>
<path d="M138.553 27.9997V16.5452H141.73V27.9997H138.553ZM140.149 15.0686C139.676 15.0686 139.271 14.912 138.933 14.5988C138.6 14.2806 138.434 13.9003 138.434 13.4578C138.434 13.0203 138.6 12.645 138.933 12.3318C139.271 12.0136 139.676 11.8545 140.149 11.8545C140.621 11.8545 141.024 12.0136 141.357 12.3318C141.695 12.645 141.864 13.0203 141.864 13.4578C141.864 13.9003 141.695 14.2806 141.357 14.5988C141.024 14.912 140.621 15.0686 140.149 15.0686Z" fill="white" style="fill:white;fill-opacity:1;"/>
<path d="M130.851 28.2239C129.692 28.2239 128.691 27.9778 127.845 27.4856C127.005 26.9885 126.356 26.2974 125.899 25.4125C125.442 24.5225 125.213 23.4909 125.213 22.3176C125.213 21.1344 125.442 20.1003 125.899 19.2154C126.356 18.3255 127.005 17.6344 127.845 17.1422C128.691 16.6451 129.692 16.3965 130.851 16.3965C132.009 16.3965 133.008 16.6451 133.849 17.1422C134.694 17.6344 135.345 18.3255 135.802 19.2154C136.26 20.1003 136.488 21.1344 136.488 22.3176C136.488 23.4909 136.26 24.5225 135.802 25.4125C135.345 26.2974 134.694 26.9885 133.849 27.4856C133.008 27.9778 132.009 28.2239 130.851 28.2239ZM130.866 25.763C131.393 25.763 131.833 25.6138 132.186 25.3155C132.539 25.0122 132.805 24.5996 132.983 24.0776C133.167 23.5556 133.259 22.9615 133.259 22.2953C133.259 21.6291 133.167 21.035 132.983 20.513C132.805 19.9909 132.539 19.5783 132.186 19.275C131.833 18.9718 131.393 18.8201 130.866 18.8201C130.334 18.8201 129.886 18.9718 129.523 19.275C129.165 19.5783 128.894 19.9909 128.71 20.513C128.531 21.035 128.442 21.6291 128.442 22.2953C128.442 22.9615 128.531 23.5556 128.71 24.0776C128.894 24.5996 129.165 25.0122 129.523 25.3155C129.886 25.6138 130.334 25.763 130.866 25.763Z" fill="white" style="fill:white;fill-opacity:1;"/>
<path d="M123.418 18.0743H120.151C120.092 17.6517 119.97 17.2764 119.786 16.9482C119.602 16.6151 119.366 16.3318 119.078 16.0981C118.789 15.8644 118.456 15.6855 118.078 15.5612C117.705 15.4369 117.3 15.3747 116.863 15.3747C116.072 15.3747 115.384 15.5711 114.797 15.9639C114.21 16.3517 113.756 16.9184 113.432 17.6642C113.109 18.4049 112.948 19.3048 112.948 20.3637C112.948 21.4525 113.109 22.3673 113.432 23.108C113.76 23.8488 114.218 24.4081 114.805 24.786C115.391 25.1638 116.07 25.3527 116.84 25.3527C117.273 25.3527 117.673 25.2955 118.041 25.1812C118.414 25.0669 118.744 24.9003 119.033 24.6816C119.321 24.4578 119.56 24.1869 119.749 23.8687C119.943 23.5505 120.077 23.1876 120.151 22.7799L123.418 22.7948C123.333 23.4958 123.122 24.172 122.784 24.8232C122.451 25.4695 122.001 26.0487 121.434 26.5608C120.872 27.0679 120.201 27.4706 119.421 27.7689C118.645 28.0622 117.768 28.2089 116.788 28.2089C115.426 28.2089 114.208 27.9007 113.134 27.2842C112.065 26.6677 111.22 25.7753 110.599 24.607C109.982 23.4387 109.674 22.0242 109.674 20.3637C109.674 18.6982 109.987 17.2813 110.613 16.113C111.24 14.9447 112.09 14.0548 113.164 13.4433C114.238 12.8268 115.446 12.5186 116.788 12.5186C117.673 12.5186 118.493 12.6428 119.249 12.8914C120.01 13.14 120.683 13.5029 121.27 13.9802C121.857 14.4525 122.334 15.0317 122.702 15.7178C123.075 16.4039 123.313 17.1894 123.418 18.0743Z" fill="white" style="fill:white;fill-opacity:1;"/>
<path d="M99.9972 21.378V28.0002H96.8203V16.5456H99.848V18.5666H99.9822C100.236 17.9004 100.661 17.3734 101.257 16.9856C101.854 16.5929 102.577 16.3965 103.428 16.3965C104.223 16.3965 104.917 16.5705 105.508 16.9185C106.1 17.2665 106.56 17.7637 106.888 18.41C107.216 19.0513 107.38 19.8169 107.38 20.7069V28.0002H104.203V21.2736C104.208 20.5726 104.029 20.0257 103.666 19.633C103.303 19.2353 102.804 19.0364 102.167 19.0364C101.74 19.0364 101.362 19.1284 101.034 19.3123C100.711 19.4963 100.457 19.7647 100.273 20.1177C100.094 20.4657 100.002 20.8858 99.9972 21.378Z" fill="white" style="fill:white;fill-opacity:1;"/>
<path d="M89.4892 28.2239C88.3109 28.2239 87.2967 27.9853 86.4466 27.508C85.6014 27.0257 84.9501 26.3446 84.4927 25.4647C84.0353 24.5797 83.8066 23.5332 83.8066 22.3251C83.8066 21.1468 84.0353 20.1127 84.4927 19.2228C84.9501 18.3329 85.5939 17.6394 86.4242 17.1422C87.2594 16.6451 88.2388 16.3965 89.3624 16.3965C90.1181 16.3965 90.8216 16.5183 91.4728 16.7619C92.1291 17.0005 92.7008 17.361 93.188 17.8432C93.6802 18.3255 94.063 18.932 94.3365 19.6628C94.6099 20.3887 94.7466 21.2388 94.7466 22.2132V23.0858H85.0744V21.117H91.7562C91.7562 20.6596 91.6568 20.2544 91.4579 19.9015C91.2591 19.5485 90.9831 19.2725 90.6301 19.0737C90.2821 18.8699 89.877 18.7679 89.4146 18.7679C88.9324 18.7679 88.5048 18.8798 88.1319 19.1035C87.764 19.3223 87.4757 19.6181 87.2669 19.9909C87.0581 20.3588 86.9512 20.769 86.9462 21.2214V23.0932C86.9462 23.66 87.0506 24.1497 87.2594 24.5623C87.4732 24.975 87.774 25.2931 88.1618 25.5169C88.5495 25.7406 89.0094 25.8524 89.5414 25.8524C89.8944 25.8524 90.2175 25.8027 90.5108 25.7033C90.8042 25.6039 91.0552 25.4547 91.264 25.2559C91.4728 25.057 91.6319 24.8134 91.7413 24.525L94.6795 24.7189C94.5304 25.4249 94.2246 26.0414 93.7623 26.5684C93.3049 27.0904 92.7132 27.498 91.9874 27.7914C91.2665 28.0797 90.4338 28.2239 89.4892 28.2239Z" fill="white" style="fill:white;fill-opacity:1;"/>
<path d="M68.9531 27.9995L65.8359 16.5449H69.0501L70.8249 24.2409H70.9293L72.7788 16.5449H75.9332L77.8125 24.1962H77.9094L79.6545 16.5449H82.8611L79.7514 27.9995H76.3881L74.4194 20.7956H74.2777L72.3089 27.9995H68.9531Z" fill="white" style="fill:white;fill-opacity:1;"/>
<path d="M64.3619 20.3637C64.3619 22.0292 64.0462 23.4461 63.4148 24.6144C62.7884 25.7828 61.9332 26.6752 60.8494 27.2916C59.7706 27.9031 58.5575 28.2089 57.2102 28.2089C55.853 28.2089 54.6349 27.9007 53.5561 27.2842C52.4773 26.6677 51.6246 25.7753 50.9982 24.607C50.3718 23.4387 50.0586 22.0242 50.0586 20.3637C50.0586 18.6982 50.3718 17.2813 50.9982 16.113C51.6246 14.9447 52.4773 14.0548 53.5561 13.4433C54.6349 12.8268 55.853 12.5186 57.2102 12.5186C58.5575 12.5186 59.7706 12.8268 60.8494 13.4433C61.9332 14.0548 62.7884 14.9447 63.4148 16.113C64.0462 17.2813 64.3619 18.6982 64.3619 20.3637ZM61.0881 20.3637C61.0881 19.2849 60.9265 18.3751 60.6033 17.6343C60.2852 16.8936 59.8352 16.3318 59.2536 15.949C58.6719 15.5661 57.9908 15.3747 57.2102 15.3747C56.4297 15.3747 55.7486 15.5661 55.1669 15.949C54.5852 16.3318 54.1328 16.8936 53.8097 17.6343C53.4915 18.3751 53.3324 19.2849 53.3324 20.3637C53.3324 21.4426 53.4915 22.3524 53.8097 23.0931C54.1328 23.8339 54.5852 24.3957 55.1669 24.7785C55.7486 25.1613 56.4297 25.3527 57.2102 25.3527C57.9908 25.3527 58.6719 25.1613 59.2536 24.7785C59.8352 24.3957 60.2852 23.8339 60.6033 23.0931C60.9265 22.3524 61.0881 21.4426 61.0881 20.3637Z" fill="white" style="fill:white;fill-opacity:1;"/>
<path d="M32.3487 20.7033C31.9697 21.0846 31.6795 21.5448 31.4987 22.051C31.3179 22.5573 31.251 23.0972 31.3027 23.6323L31.2847 23.6143C31.3379 24.2442 31.2529 24.878 31.0358 25.4717C30.8187 26.0653 30.4747 26.6044 30.0278 27.0514C29.5808 27.4983 29.0417 27.8424 28.448 28.0594C27.8544 28.2765 27.2205 28.3615 26.5907 28.3083L26.6087 28.3263C25.8553 28.2562 25.0986 28.4201 24.4417 28.7958C23.7849 29.1715 23.2599 29.7406 22.9384 30.4256C22.6169 31.1106 22.5144 31.878 22.645 32.6234C22.7757 33.3687 23.133 34.0556 23.6683 34.5904C24.2036 35.1252 24.8908 35.4819 25.6362 35.6118C26.3817 35.7418 27.149 35.6386 27.8337 35.3165C28.5184 34.9943 29.087 34.4689 29.4621 33.8117C29.8372 33.1545 30.0005 32.3977 29.9297 31.6443L29.9487 31.6623C29.8955 31.0325 29.9804 30.3986 30.1975 29.8049C30.4146 29.2113 30.7587 28.6722 31.2056 28.2252C31.6526 27.7783 32.1917 27.4342 32.7853 27.2172C33.379 27.0001 34.0128 26.9151 34.6427 26.9683L34.6237 26.9503C35.2391 27.0056 35.8586 26.9047 36.4247 26.6569C36.9907 26.4091 37.4851 26.0224 37.8619 25.5327C38.2387 25.043 38.4859 24.466 38.5803 23.8554C38.6748 23.2447 38.6136 22.6201 38.4024 22.0393C38.1912 21.4586 37.8368 20.9406 37.3721 20.5333C36.9074 20.126 36.3474 19.8426 35.744 19.7094C35.1406 19.5762 34.5133 19.5974 33.9203 19.7711C33.3273 19.9449 32.7878 20.2655 32.3517 20.7033H32.3487Z" fill="#6161D6" style="fill:#6161D6;fill:color(display-p3 0.3794 0.3794 0.8400);fill-opacity:1;"/>
<path d="M24.9709 25.9683L24.9519 25.9503C25.4872 26.0042 26.0278 25.9385 26.5347 25.7579C27.0415 25.5773 27.5019 25.2864 27.8825 24.9061C28.263 24.5258 28.5544 24.0656 28.7353 23.5589C28.9163 23.0522 28.9824 22.5117 28.9289 21.9763L28.9479 21.9943C28.8947 21.3644 28.9797 20.7306 29.1967 20.1369C29.4138 19.5433 29.7579 19.0042 30.2048 18.5572C30.6518 18.1103 31.1909 17.7662 31.7845 17.5492C32.3782 17.332 33.012 17.2471 33.6419 17.3003L33.6229 17.2823C34.3764 17.3531 35.1333 17.1896 35.7905 16.8144C36.4478 16.4391 36.9732 15.8702 37.2952 15.1854C37.6172 14.5005 37.7201 13.733 37.5899 12.9875C37.4597 12.242 37.1027 11.5548 36.5675 11.0196C36.0324 10.4845 35.3452 10.1275 34.5997 9.99725C33.8542 9.86702 33.0867 9.96993 32.4018 10.292C31.7169 10.614 31.1481 11.1394 30.7728 11.7966C30.3975 12.4538 30.2341 13.2108 30.3049 13.9643L30.2869 13.9453C30.3402 14.5752 30.2554 15.2091 30.0384 15.8028C29.8214 16.3965 29.4773 16.9357 29.0304 17.3828C28.5834 17.8297 28.0442 18.1738 27.4505 18.3908C26.8567 18.6078 26.2228 18.6926 25.5929 18.6393L25.6109 18.6583C25.0756 18.6044 24.5349 18.6701 24.0281 18.8507C23.5213 19.0312 23.0609 19.3222 22.6803 19.7025C22.2997 20.0828 22.0084 20.543 21.8274 21.0497C21.6465 21.5564 21.5804 22.0969 21.6339 22.6323L21.6159 22.6143C21.6689 23.2441 21.5838 23.8779 21.3667 24.4715C21.1495 25.065 20.8055 25.6041 20.3586 26.051C19.9116 26.4979 19.3726 26.8419 18.779 27.0591C18.1855 27.2762 17.5517 27.3613 16.9219 27.3083L16.9399 27.3263C16.1864 27.2555 15.4294 27.4189 14.7722 27.7942C14.115 28.1695 13.5896 28.7383 13.2675 29.4232C12.9455 30.1081 12.8426 30.8756 12.9728 31.6211C13.1031 32.3666 13.4601 33.0538 13.9952 33.5889C14.5304 34.1241 15.2176 34.4811 15.9631 34.6113C16.7086 34.7415 17.4761 34.6386 18.161 34.3166C18.8458 33.9946 19.4147 33.4692 19.79 32.812C20.1653 32.1547 20.3287 31.3978 20.2579 30.6443L20.2769 30.6623C20.2237 30.0324 20.3087 29.3986 20.5258 28.8049C20.7428 28.2113 21.0869 27.6722 21.5338 27.2252C21.9808 26.7783 22.5199 26.4342 23.1135 26.2172C23.7072 26.0001 24.341 25.9151 24.9709 25.9683Z" fill="#6161D6" style="fill:#6161D6;fill:color(display-p3 0.3794 0.3794 0.8400);fill-opacity:1;"/>
<path d="M18.2699 23.961C18.6489 23.5798 18.9391 23.1196 19.1197 22.6133C19.3004 22.107 19.367 21.567 19.3149 21.032L19.3339 21.05C19.2807 20.42 19.3656 19.7859 19.5829 19.1921C19.8001 18.5983 20.1443 18.0591 20.5915 17.6121C21.0387 17.1651 21.578 16.8211 22.1719 16.6042C22.7658 16.3872 23.3999 16.3025 24.0299 16.356L24.0109 16.338C24.7641 16.4085 25.5208 16.2451 26.1777 15.8698C26.8346 15.4946 27.3597 14.9259 27.6816 14.2412C28.0034 13.5565 28.1062 12.7893 27.976 12.0441C27.8458 11.2988 27.4888 10.6119 26.9539 10.077C26.419 9.54203 25.732 9.18511 24.9868 9.05489C24.2416 8.92466 23.4743 9.02748 22.7897 9.3493C22.105 9.67112 21.5363 10.1963 21.1611 10.8532C20.7858 11.5101 20.6223 12.2668 20.6929 13.02L20.6749 13.002C20.7281 13.6318 20.6431 14.2657 20.426 14.8593C20.2089 15.453 19.8649 15.9921 19.418 16.439C18.971 16.886 18.4319 17.23 17.8382 17.4471C17.2446 17.6642 16.6107 17.7492 15.9809 17.696L15.9989 17.714C15.3835 17.6588 14.7641 17.7599 14.1981 18.0078C13.6321 18.2557 13.1378 18.6425 12.7611 19.1323C12.3844 19.622 12.1374 20.199 12.0431 20.8096C11.9487 21.4203 12.01 22.0449 12.2213 22.6255C12.4325 23.2062 12.787 23.7241 13.2517 24.1313C13.7164 24.5386 14.2764 24.8219 14.8798 24.9551C15.4832 25.0882 16.1104 25.0669 16.7034 24.8932C17.2963 24.7194 17.8358 24.3988 18.2719 23.961H18.2699Z" fill="#6161D6" style="fill:#6161D6;fill:color(display-p3 0.3794 0.3794 0.8400);fill-opacity:1;"/>
</svg>
