<svg width="167" height="27" viewBox="0 0 167 27" fill="none" xmlns="http://www.w3.org/2000/svg">
<path d="M20.5167 11.7033C20.1377 12.0846 19.8475 12.5448 19.6667 13.051C19.4859 13.5573 19.419 14.0972 19.4707 14.6323L19.4527 14.6143C19.5059 15.2442 19.4209 15.878 19.2038 16.4717C18.9867 17.0653 18.6427 17.6044 18.1958 18.0514C17.7488 18.4983 17.2097 18.8424 16.616 19.0594C16.0224 19.2765 15.3885 19.3615 14.7587 19.3083L14.7767 19.3263C14.0233 19.2562 13.2666 19.4201 12.6097 19.7958C11.9529 20.1715 11.4279 20.7406 11.1064 21.4256C10.7849 22.1106 10.6824 22.878 10.813 23.6234C10.9437 24.3687 11.301 25.0556 11.8363 25.5904C12.3716 26.1252 13.0588 26.4819 13.8042 26.6118C14.5497 26.7418 15.317 26.6386 16.0017 26.3165C16.6864 25.9943 17.255 25.4689 17.6301 24.8117C18.0052 24.1545 18.1685 23.3977 18.0977 22.6443L18.1167 22.6623C18.0635 22.0325 18.1484 21.3986 18.3655 20.8049C18.5826 20.2113 18.9267 19.6722 19.3736 19.2252C19.8206 18.7783 20.3597 18.4342 20.9533 18.2172C21.547 18.0001 22.1808 17.9151 22.8107 17.9683L22.7917 17.9503C23.4071 18.0056 24.0266 17.9047 24.5927 17.6569C25.1587 17.4091 25.6531 17.0224 26.0299 16.5327C26.4067 16.043 26.6539 15.466 26.7483 14.8554C26.8428 14.2447 26.7816 13.6201 26.5704 13.0393C26.3592 12.4586 26.0048 11.9406 25.5401 11.5333C25.0754 11.126 24.5154 10.8426 23.912 10.7094C23.3086 10.5762 22.6813 10.5974 22.0883 10.7711C21.4953 10.9449 20.9558 11.2655 20.5197 11.7033H20.5167Z" fill="#6161D6"/>
<path d="M13.0841 16.9683L13.0651 16.9503C13.6004 17.0042 14.141 16.9385 14.6479 16.7579C15.1547 16.5773 15.6151 16.2864 15.9957 15.9061C16.3762 15.5258 16.6676 15.0656 16.8485 14.5589C17.0295 14.0522 17.0956 13.5117 17.0421 12.9763L17.0611 12.9943C17.0079 12.3644 17.0929 11.7306 17.3099 11.1369C17.527 10.5433 17.8711 10.0042 18.318 9.55717C18.765 9.11027 19.3041 8.76617 19.8977 8.54917C20.4914 8.33203 21.1252 8.2471 21.7551 8.30027L21.7361 8.28227C22.4896 8.35307 23.2465 8.18963 23.9037 7.81437C24.561 7.43911 25.0864 6.87024 25.4084 6.18537C25.7304 5.50051 25.8333 4.73298 25.7031 3.98747C25.5729 3.24196 25.2159 2.55478 24.6807 2.01964C24.1456 1.48451 23.4584 1.12747 22.7129 0.997251C21.9674 0.867021 21.1999 0.969932 20.515 1.29195C19.8301 1.61396 19.2613 2.13941 18.886 2.79662C18.5107 3.45382 18.3473 4.21079 18.4181 4.96427L18.4001 4.94527C18.4534 5.57516 18.3686 6.2091 18.1516 6.80282C17.9346 7.39654 17.5905 7.93573 17.1436 8.38277C16.6966 8.82967 16.1574 9.17377 15.5637 9.39077C14.9699 9.60777 14.336 9.69257 13.7061 9.63927L13.7241 9.65827C13.1888 9.60437 12.6481 9.67007 12.1413 9.85067C11.6345 10.0312 11.1741 10.3222 10.7935 10.7025C10.4129 11.0828 10.1216 11.543 9.94065 12.0497C9.75975 12.5564 9.69365 13.0969 9.74715 13.6323L9.72915 13.6143C9.78215 14.2441 9.69705 14.8779 9.47995 15.4715C9.26275 16.065 8.91875 16.6041 8.47185 17.051C8.02491 17.4979 7.48587 17.8419 6.89231 18.0591C6.29875 18.2762 5.66496 18.3613 5.03515 18.3083L5.05315 18.3263C4.29967 18.2555 3.5427 18.4189 2.88549 18.7942C2.22829 19.1695 1.70284 19.7383 1.38083 20.4232C1.05881 21.1081 0.955887 21.8756 1.08612 22.6211C1.21635 23.3666 1.57339 24.0538 2.10852 24.5889C2.64366 25.1241 3.33084 25.4811 4.07635 25.6113C4.82186 25.7415 5.58939 25.6386 6.27426 25.3166C6.95912 24.9946 7.52799 24.4692 7.90325 23.812C8.27855 23.1547 8.44195 22.3978 8.37115 21.6443L8.39015 21.6623C8.33695 21.0324 8.42195 20.3986 8.63905 19.8049C8.85605 19.2113 9.20015 18.6722 9.64705 18.2252C10.094 17.7783 10.6331 17.4342 11.2267 17.2172C11.8204 17.0001 12.4542 16.9151 13.0841 16.9683Z" fill="#6161D6"/>
<path d="M6.2699 14.961C6.64892 14.5798 6.9391 14.1196 7.11974 13.6133C7.30038 13.107 7.36702 12.567 7.3149 12.032L7.33389 12.05C7.28069 11.42 7.36565 10.7859 7.58286 10.1921C7.80007 9.59827 8.1443 9.05907 8.5915 8.61207C9.0387 8.16509 9.578 7.8211 10.1719 7.60415C10.7658 7.38719 11.3999 7.30249 12.0299 7.35597L12.0109 7.33797C12.7641 7.40854 13.5208 7.24505 14.1777 6.86981C14.8346 6.49458 15.3597 5.92585 15.6816 5.2412C16.0034 4.55654 16.1062 3.78929 15.976 3.04406C15.8458 2.29883 15.4888 1.61191 14.9539 1.07697C14.419 0.54203 13.732 0.18511 12.9868 0.0548905C12.2416 -0.0753395 11.4743 0.0274805 10.7897 0.3493C10.105 0.67112 9.5363 1.19629 9.1611 1.85319C8.7858 2.51009 8.6223 3.26675 8.6929 4.01997L8.6749 4.00197C8.7281 4.63182 8.6431 5.26569 8.426 5.85933C8.2089 6.45297 7.86492 6.99208 7.41796 7.43904C6.97101 7.886 6.43189 8.23003 5.83825 8.44707C5.24461 8.66417 4.61075 8.74917 3.9809 8.69597L3.9989 8.71397C3.38347 8.65877 2.76406 8.75987 2.19808 9.00777C1.6321 9.25567 1.13785 9.64247 0.761139 10.1323C0.384429 10.622 0.137449 11.199 0.0430689 11.8096C-0.0513011 12.4203 0.0099889 13.0449 0.221259 13.6255C0.432529 14.2062 0.786959 14.7241 1.25169 15.1313C1.71642 15.5386 2.27642 15.8219 2.8798 15.9551C3.48317 16.0882 4.1104 16.0669 4.70337 15.8932C5.29633 15.7194 5.83583 15.3988 6.27189 14.961H6.2699Z" fill="#6161D6"/>
<path d="M49.4759 11.4921H46.6761C46.625 11.1299 46.5206 10.8082 46.3629 10.5269C46.2053 10.2414 46.0028 9.99849 45.7557 9.79821C45.5085 9.59792 45.223 9.44451 44.8991 9.33798C44.5795 9.23145 44.2322 9.17818 43.8572 9.17818C43.1797 9.17818 42.5895 9.3465 42.0866 9.68315C41.5838 10.0155 41.1939 10.5013 40.9169 11.1405C40.6399 11.7755 40.5014 12.5468 40.5014 13.4545C40.5014 14.3877 40.6399 15.1718 40.9169 15.8067C41.1982 16.4417 41.5902 16.9211 42.093 17.2449C42.5959 17.5688 43.1776 17.7307 43.8381 17.7307C44.2088 17.7307 44.5518 17.6817 44.8672 17.5837C45.1868 17.4857 45.4702 17.343 45.7173 17.1555C45.9645 16.9637 46.169 16.7314 46.331 16.4587C46.4972 16.186 46.6122 15.8749 46.6761 15.5255L49.4759 15.5383C49.4034 16.1391 49.2223 16.7187 48.9325 17.2769C48.647 17.8309 48.2614 18.3273 47.7756 18.7662C47.294 19.2009 46.7187 19.5461 46.0497 19.8018C45.3849 20.0532 44.6328 20.1789 43.7933 20.1789C42.6257 20.1789 41.5817 19.9147 40.6612 19.3863C39.745 18.8579 39.0206 18.093 38.4879 17.0915C37.9595 16.0901 37.6953 14.8778 37.6953 13.4545C37.6953 12.0269 37.9638 10.8124 38.5007 9.81099C39.0376 8.80957 39.7663 8.04679 40.6868 7.52264C41.6072 6.99423 42.6428 6.73003 43.7933 6.73003C44.5518 6.73003 45.255 6.83656 45.9027 7.04963C46.5547 7.2627 47.1321 7.57378 47.6349 7.98287C48.1378 8.3877 48.5469 8.88414 48.8622 9.47221C49.1818 10.0603 49.3864 10.7336 49.4759 11.4921Z" fill="white"/>
<path d="M55.8455 20.1917C54.8526 20.1917 53.994 19.9807 53.2695 19.5589C52.5494 19.1327 51.9933 18.5404 51.6012 17.7819C51.2092 17.0191 51.0131 16.1349 51.0131 15.1292C51.0131 14.115 51.2092 13.2286 51.6012 12.4701C51.9933 11.7073 52.5494 11.115 53.2695 10.6931C53.994 10.267 54.8526 10.0539 55.8455 10.0539C56.8384 10.0539 57.695 10.267 58.4151 10.6931C59.1396 11.115 59.6978 11.7073 60.0898 12.4701C60.4819 13.2286 60.6779 14.115 60.6779 15.1292C60.6779 16.1349 60.4819 17.0191 60.0898 17.7819C59.6978 18.5404 59.1396 19.1327 58.4151 19.5589C57.695 19.9807 56.8384 20.1917 55.8455 20.1917ZM55.8583 18.0823C56.31 18.0823 56.6871 17.9545 56.9897 17.6988C57.2923 17.4388 57.5202 17.0851 57.6737 16.6377C57.8313 16.1903 57.9102 15.681 57.9102 15.11C57.9102 14.539 57.8313 14.0297 57.6737 13.5823C57.5202 13.1349 57.2923 12.7812 56.9897 12.5212C56.6871 12.2613 56.31 12.1313 55.8583 12.1313C55.4023 12.1313 55.0188 12.2613 54.7077 12.5212C54.4009 12.7812 54.1687 13.1349 54.011 13.5823C53.8576 14.0297 53.7809 14.539 53.7809 15.11C53.7809 15.681 53.8576 16.1903 54.011 16.6377C54.1687 17.0851 54.4009 17.4388 54.7077 17.6988C55.0188 17.9545 55.4023 18.0823 55.8583 18.0823Z" fill="white"/>
<path d="M62.4485 19.9999V10.1817H65.1715V19.9999H62.4485ZM63.8164 8.9161C63.4116 8.9161 63.0643 8.78187 62.7745 8.51341C62.489 8.24068 62.3462 7.91468 62.3462 7.53542C62.3462 7.16042 62.489 6.83869 62.7745 6.57022C63.0643 6.2975 63.4116 6.16113 63.8164 6.16113C64.2212 6.16113 64.5664 6.2975 64.8519 6.57022C65.1417 6.83869 65.2866 7.16042 65.2866 7.53542C65.2866 7.91468 65.1417 8.24068 64.8519 8.51341C64.5664 8.78187 64.2212 8.9161 63.8164 8.9161Z" fill="white"/>
<path d="M70.0758 14.3238V19.9999H67.3528V10.1817H69.948V11.914H70.063C70.2804 11.343 70.6447 10.8912 71.1561 10.5589C71.6674 10.2222 72.2875 10.0539 73.0162 10.0539C73.698 10.0539 74.2924 10.203 74.7995 10.5013C75.3066 10.7996 75.7008 11.2258 75.9821 11.7797C76.2633 12.3295 76.4039 12.9857 76.4039 13.7485V19.9999H73.6809V14.2343C73.6852 13.6334 73.5318 13.1647 73.2207 12.828C72.9096 12.4871 72.4814 12.3167 71.9359 12.3167C71.5694 12.3167 71.2456 12.3955 70.9643 12.5532C70.6873 12.7108 70.47 12.941 70.3123 13.2435C70.1589 13.5418 70.0801 13.9019 70.0758 14.3238Z" fill="white"/>
<path d="M80.6339 19.9999L76.8881 6.909H79.9116L82.0785 16.0049H82.1871L84.5778 6.909H87.1665L89.5508 16.0241H89.6658L91.8327 6.909H94.8562L91.1104 19.9999H88.413L85.9201 11.441H85.8178L83.3313 19.9999H80.6339Z" fill="white"/>
<path d="M98.0314 20.1853C97.405 20.1853 96.8468 20.0766 96.3567 19.8593C95.8667 19.6377 95.4789 19.3117 95.1934 18.8813C94.9121 18.4466 94.7715 17.9055 94.7715 17.2577C94.7715 16.7123 94.8716 16.2542 95.0719 15.8834C95.2722 15.5127 95.5449 15.2144 95.8901 14.9885C96.2353 14.7627 96.6273 14.5922 97.0662 14.4772C97.5094 14.3621 97.9739 14.2812 98.4597 14.2343C99.0307 14.1746 99.4909 14.1192 99.8404 14.0681C100.19 14.0127 100.443 13.9317 100.601 13.8252C100.759 13.7187 100.838 13.561 100.838 13.3522V13.3138C100.838 12.909 100.71 12.5958 100.454 12.3742C100.203 12.1526 99.8446 12.0418 99.3801 12.0418C98.8901 12.0418 98.5002 12.1505 98.2104 12.3678C97.9206 12.5809 97.7289 12.8493 97.6351 13.1732L95.1167 12.9687C95.2445 12.3721 95.4959 11.8564 95.8709 11.4218C96.2459 10.9829 96.7296 10.6462 97.3219 10.4118C97.9185 10.1732 98.6088 10.0539 99.3929 10.0539C99.9384 10.0539 100.46 10.1178 100.959 10.2457C101.462 10.3735 101.907 10.5716 102.295 10.8401C102.687 11.1086 102.996 11.4537 103.222 11.8756C103.448 12.2932 103.561 12.7939 103.561 13.3778V19.9999H100.978V18.6384H100.901C100.744 18.9452 100.533 19.2158 100.269 19.4502C100.004 19.6803 99.687 19.8614 99.3162 19.9935C98.9455 20.1214 98.5172 20.1853 98.0314 20.1853ZM98.8113 18.306C99.2118 18.306 99.5655 18.2272 99.8723 18.0695C100.179 17.9076 100.42 17.6903 100.595 17.4175C100.769 17.1448 100.857 16.8358 100.857 16.4907V15.4488C100.771 15.5042 100.654 15.5553 100.505 15.6022C100.36 15.6448 100.196 15.6853 100.013 15.7236C99.8297 15.7577 99.6465 15.7897 99.4632 15.8195C99.28 15.8451 99.1138 15.8685 98.9647 15.8898C98.6451 15.9367 98.3659 16.0113 98.1273 16.1135C97.8887 16.2158 97.7033 16.3543 97.5712 16.529C97.4391 16.6995 97.373 16.9126 97.373 17.1682C97.373 17.539 97.5073 17.8224 97.7757 18.0184C98.0485 18.2101 98.3936 18.306 98.8113 18.306Z" fill="white"/>
<path d="M110.895 10.1817V12.2272H104.983V10.1817H110.895ZM106.325 7.82946H109.048V16.9829C109.048 17.2343 109.086 17.4303 109.163 17.5709C109.24 17.7073 109.346 17.8032 109.483 17.8586C109.623 17.914 109.785 17.9417 109.969 17.9417C110.096 17.9417 110.224 17.931 110.352 17.9097C110.48 17.8841 110.578 17.865 110.646 17.8522L111.074 19.8785C110.938 19.9211 110.746 19.9701 110.499 20.0255C110.252 20.0851 109.952 20.1214 109.598 20.1341C108.942 20.1597 108.366 20.0724 107.872 19.8721C107.382 19.6718 107.001 19.3607 106.728 18.9388C106.455 18.517 106.321 17.9843 106.325 17.3408V7.82946Z" fill="white"/>
<path d="M117 20.1917C115.994 20.1917 115.129 19.9786 114.405 19.5525C113.684 19.1221 113.131 18.5255 112.743 17.7627C112.359 16.9999 112.167 16.1221 112.167 15.1292C112.167 14.1235 112.361 13.2414 112.749 12.4829C113.141 11.7201 113.697 11.1256 114.417 10.6995C115.138 10.2691 115.994 10.0539 116.987 10.0539C117.844 10.0539 118.594 10.2094 119.237 10.5205C119.881 10.8316 120.39 11.2684 120.765 11.8309C121.14 12.3934 121.346 13.0539 121.385 13.8124H118.815C118.743 13.3224 118.551 12.9282 118.24 12.6299C117.933 12.3273 117.53 12.176 117.032 12.176C116.61 12.176 116.241 12.2911 115.926 12.5212C115.615 12.7471 115.372 13.0773 115.197 13.512C115.023 13.9466 114.935 14.4729 114.935 15.0908C114.935 15.7172 115.02 16.2499 115.191 16.6888C115.366 17.1278 115.611 17.4623 115.926 17.6924C116.241 17.9225 116.61 18.0376 117.032 18.0376C117.343 18.0376 117.622 17.9736 117.869 17.8458C118.121 17.718 118.327 17.5326 118.489 17.2897C118.655 17.0425 118.764 16.7464 118.815 16.4012H121.385C121.342 17.1512 121.138 17.8117 120.771 18.3827C120.409 18.9495 119.908 19.3927 119.269 19.7123C118.63 20.0319 117.873 20.1917 117 20.1917Z" fill="white"/>
<path d="M125.851 14.3238V19.9999H123.128V6.909H125.775V11.914H125.89C126.111 11.3344 126.469 10.8806 126.963 10.5525C127.458 10.2201 128.078 10.0539 128.824 10.0539C129.505 10.0539 130.1 10.203 130.607 10.5013C131.118 10.7954 131.515 11.2194 131.796 11.7733C132.081 12.3231 132.222 12.9814 132.218 13.7485V19.9999H129.495V14.2343C129.499 13.6292 129.346 13.1583 129.034 12.8216C128.728 12.485 128.297 12.3167 127.743 12.3167C127.373 12.3167 127.044 12.3955 126.759 12.5532C126.478 12.7108 126.256 12.941 126.094 13.2435C125.936 13.5418 125.855 13.9019 125.851 14.3238Z" fill="white"/>
<path d="M138.578 19.9999V6.909H143.743C144.735 6.909 145.581 7.09863 146.28 7.47789C146.979 7.85289 147.512 8.37491 147.878 9.04395C148.249 9.70872 148.434 10.4758 148.434 11.3451C148.434 12.2144 148.247 12.9814 147.872 13.6462C147.497 14.311 146.953 14.8287 146.242 15.1995C145.534 15.5702 144.678 15.7556 143.672 15.7556H140.38V13.5376H143.225C143.757 13.5376 144.196 13.4459 144.542 13.2627C144.891 13.0752 145.151 12.8174 145.321 12.4893C145.496 12.1569 145.583 11.7755 145.583 11.3451C145.583 10.9104 145.496 10.5312 145.321 10.2073C145.151 9.87917 144.891 9.62562 144.542 9.44664C144.192 9.26341 143.749 9.17179 143.212 9.17179H141.346V19.9999H138.578Z" fill="white"/>
<path d="M150.181 19.9999V10.1817H152.821V11.8948H152.923C153.102 11.2854 153.403 10.8252 153.824 10.5141C154.246 10.1988 154.732 10.0411 155.282 10.0411C155.418 10.0411 155.565 10.0496 155.723 10.0667C155.881 10.0837 156.019 10.1072 156.138 10.137V12.5532C156.01 12.5148 155.834 12.4807 155.608 12.4509C155.382 12.4211 155.175 12.4062 154.988 12.4062C154.587 12.4062 154.229 12.4935 153.914 12.6682C153.603 12.8387 153.356 13.0773 153.172 13.3841C152.993 13.691 152.904 14.0447 152.904 14.4452V19.9999H150.181Z" fill="white"/>
<path d="M161.525 20.1917C160.532 20.1917 159.674 19.9807 158.949 19.5589C158.229 19.1327 157.673 18.5404 157.281 17.7819C156.889 17.0191 156.693 16.1349 156.693 15.1292C156.693 14.115 156.889 13.2286 157.281 12.4701C157.673 11.7073 158.229 11.115 158.949 10.6931C159.674 10.267 160.532 10.0539 161.525 10.0539C162.518 10.0539 163.375 10.267 164.095 10.6931C164.819 11.115 165.377 11.7073 165.77 12.4701C166.162 13.2286 166.358 14.115 166.358 15.1292C166.358 16.1349 166.162 17.0191 165.77 17.7819C165.377 18.5404 164.819 19.1327 164.095 19.5589C163.375 19.9807 162.518 20.1917 161.525 20.1917ZM161.538 18.0823C161.99 18.0823 162.367 17.9545 162.669 17.6988C162.972 17.4388 163.2 17.0851 163.353 16.6377C163.511 16.1903 163.59 15.681 163.59 15.11C163.59 14.539 163.511 14.0297 163.353 13.5823C163.2 13.1349 162.972 12.7812 162.669 12.5212C162.367 12.2613 161.99 12.1313 161.538 12.1313C161.082 12.1313 160.699 12.2613 160.387 12.5212C160.081 12.7812 159.848 13.1349 159.691 13.5823C159.537 14.0297 159.461 14.539 159.461 15.11C159.461 15.681 159.537 16.1903 159.691 16.6377C159.848 17.0851 160.081 17.4388 160.387 17.6988C160.699 17.9545 161.082 18.0823 161.538 18.0823Z" fill="white"/>
</svg>
